<svg xmlns="http://www.w3.org/2000/svg" xmlns:xlink="http://www.w3.org/1999/xlink" width="108" height="108" viewBox="0 0 108 108">
  <defs>
    <filter id="Trazado_978624" x="0" y="0" width="108" height="108" filterUnits="userSpaceOnUse">
      <feOffset dy="3" input="SourceAlpha"/>
      <feGaussianBlur stdDeviation="3" result="blur"/>
      <feFlood flood-opacity="0.161"/>
      <feComposite operator="in" in2="blur"/>
      <feComposite in="SourceGraphic"/>
    </filter>
  </defs>
  <g id="_46" data-name="46" transform="translate(-202 -1592)">
    <g transform="matrix(1, 0, 0, 1, 202, 1592)" filter="url(#Trazado_978624)">
      <g id="Trazado_978624-2" data-name="Trazado 978624" transform="translate(9 6)" fill="#f5e9a1">
        <path d="M 45 88.5 C 39.12687683105469 88.5 33.43022537231445 87.35007476806641 28.06830024719238 85.08217620849609 C 22.88852500915527 82.89131164550781 18.23629951477051 79.75458526611328 14.2408504486084 75.75914764404297 C 10.24541282653809 71.76370239257812 7.108687400817871 67.11147308349609 4.917825222015381 61.93170166015625 C 2.649924993515015 56.56977462768555 1.5 50.87312316894531 1.5 45 C 1.5 39.12687683105469 2.649924993515015 33.43022537231445 4.917825222015381 28.06830024719238 C 7.108687400817871 22.88852500915527 10.24541282653809 18.23629951477051 14.2408504486084 14.2408504486084 C 18.23629951477051 10.24541282653809 22.88852500915527 7.108687400817871 28.06830024719238 4.917825222015381 C 33.43022537231445 2.649924993515015 39.12687683105469 1.5 45 1.5 C 50.87312316894531 1.5 56.56977462768555 2.649924993515015 61.93170166015625 4.917825222015381 C 67.11147308349609 7.108687400817871 71.76370239257812 10.24541282653809 75.75914764404297 14.2408504486084 C 79.75458526611328 18.23629951477051 82.89131164550781 22.88852500915527 85.08217620849609 28.06830024719238 C 87.35007476806641 33.43022537231445 88.5 39.12687683105469 88.5 45 C 88.5 50.87312316894531 87.35007476806641 56.56977462768555 85.08217620849609 61.93170166015625 C 82.89131164550781 67.11147308349609 79.75458526611328 71.76370239257812 75.75914764404297 75.75914764404297 C 71.76370239257812 79.75458526611328 67.11147308349609 82.89131164550781 61.93170166015625 85.08217620849609 C 56.56977462768555 87.35007476806641 50.87312316894531 88.5 45 88.5 Z" stroke="none"/>
        <path d="M 45 3 C 39.32871246337891 3 33.82865524291992 4.110054016113281 28.65262985229492 6.299339294433594 C 23.65165710449219 8.414573669433594 19.15968322753906 11.44334411621094 15.301513671875 15.301513671875 C 11.44334411621094 19.15968322753906 8.414573669433594 23.65165710449219 6.299339294433594 28.65262985229492 C 4.110054016113281 33.82865524291992 3 39.32871246337891 3 45 C 3 50.67128753662109 4.110054016113281 56.17134475708008 6.299339294433594 61.34737396240234 C 8.414573669433594 66.34834289550781 11.44334411621094 70.84031677246094 15.301513671875 74.698486328125 C 19.15968322753906 78.55665588378906 23.65165710449219 81.58542633056641 28.65262985229492 83.70066070556641 C 33.82865524291992 85.88994598388672 39.32871246337891 87 45 87 C 50.67128753662109 87 56.17134475708008 85.88994598388672 61.34737396240234 83.70066070556641 C 66.34834289550781 81.58542633056641 70.84031677246094 78.55665588378906 74.698486328125 74.698486328125 C 78.55665588378906 70.84031677246094 81.58542633056641 66.34834289550781 83.70066070556641 61.34737396240234 C 85.88994598388672 56.17134475708008 87 50.67128753662109 87 45 C 87 39.32871246337891 85.88994598388672 33.82865524291992 83.70066070556641 28.65262985229492 C 81.58542633056641 23.65165710449219 78.55665588378906 19.15968322753906 74.698486328125 15.301513671875 C 70.84031677246094 11.44334411621094 66.34834289550781 8.414573669433594 61.34737396240234 6.299339294433594 C 56.17134475708008 4.110054016113281 50.67128753662109 3 45 3 M 45 0 C 69.85281372070312 0 90 20.14718627929688 90 45 C 90 69.85281372070312 69.85281372070312 90 45 90 C 20.14718627929688 90 0 69.85281372070312 0 45 C 0 20.14718627929688 20.14718627929688 0 45 0 Z" stroke="none" fill="#bcac89"/>
      </g>
    </g>
    <g id="legal" transform="translate(218.151 1584.557)">
      <g id="Grupo_1145576" data-name="Grupo 1145576" transform="translate(13.636 35.639)">
        <g id="Grupo_1145573" data-name="Grupo 1145573" transform="translate(2.177 34.345)">
          <path id="Trazado_979691" data-name="Trazado 979691" d="M86.167,351.146l8.786-2.368c1.649-.444,3.258-.642,4.69.287a55.353,55.353,0,0,0,6.9,4.325,2.187,2.187,0,0,1,.783,2.923,2.117,2.117,0,0,1-2.923.783l.975.436a4.909,4.909,0,0,0,3.412.306l8.454-2.3c6.571-1.787,6.041,3.529,3.84,4.186l-15.46,4.615a5.038,5.038,0,0,1-4.089-.5L92.6,358.681l-4.116,1.1a1.49,1.49,0,0,1-1.822-1.052l-1.545-5.765A1.49,1.49,0,0,1,86.167,351.146Z" transform="translate(-83.012 -348.114)" fill="#f6dccd" fill-rule="evenodd"/>
          <path id="Trazado_979692" data-name="Trazado 979692" d="M206.034,388.243a2.16,2.16,0,0,1-2.627.374c-1.465-.839-2.925-1.689-4.387-2.533a.819.819,0,1,1,.819-1.418Z" transform="translate(-182.016 -379.635)" fill="#f1cbbc" fill-rule="evenodd"/>
          <path id="Trazado_979693" data-name="Trazado 979693" d="M86.167,351.145l8.786-2.368c1.649-.444,3.257-.642,4.69.287.854.554,1.976,1.38,3.259,2.227L85.889,355.85l-.773-2.883A1.491,1.491,0,0,1,86.167,351.145Z" transform="translate(-83.012 -348.113)" fill="#f1cbbc" fill-rule="evenodd"/>
          <path id="Trazado_979694" data-name="Trazado 979694" d="M73.58,346.964l3.176,12.274a1.118,1.118,0,0,1-.8,1.358l-2.363.612a1.118,1.118,0,0,1-1.358-.8l-3.176-12.274a1.118,1.118,0,0,1,.8-1.358l2.363-.611A1.118,1.118,0,0,1,73.58,346.964Z" transform="translate(-69.023 -346.129)" fill="#d1d1d6" fill-rule="evenodd"/>
          <path id="Trazado_979695" data-name="Trazado 979695" d="M98.184,355.137l.562,2.172.556,2.148a1.118,1.118,0,0,1-.8,1.357l.844-.218a1.118,1.118,0,0,0,.8-1.358l-.558-2.156-1.12-4.328-1.121-4.333-.377-1.457a1.119,1.119,0,0,0-1.12-.835l.653,2.523,1.12,4.328.558,2.156Z" transform="translate(-92.417 -346.129)" fill="#b1b1b5" fill-rule="evenodd"/>
        </g>
        <g id="Grupo_1145574" data-name="Grupo 1145574" transform="translate(0)">
          <path id="Trazado_979696" data-name="Trazado 979696" d="M61.063,77.915A9.038,9.038,0,0,1,70.1,86.953c0,5.02-3.207,4.72-3.642,12.119H55.667c-.435-7.4-3.642-7.1-3.642-12.119A9.038,9.038,0,0,1,61.063,77.915Z" transform="translate(-52.025 -77.915)" fill="#fff" fill-rule="evenodd"/>
          <path id="Trazado_979697" data-name="Trazado 979697" d="M103.7,281.258h4.844v2.463a1.473,1.473,0,0,1-1.469,1.469h-1.906a1.473,1.473,0,0,1-1.469-1.469Z" transform="translate(-97.08 -255.22)" fill="#b1b1b5" fill-rule="evenodd"/>
          <path id="Trazado_979698" data-name="Trazado 979698" d="M91.934,253.559H99.79v3.073a1.473,1.473,0,0,1-1.469,1.469H93.4a1.473,1.473,0,0,1-1.469-1.469Z" transform="translate(-86.824 -231.067)" fill="#d1d1d6" fill-rule="evenodd"/>
          <path id="Trazado_979699" data-name="Trazado 979699" d="M129.925,250.071v3.519a1.473,1.473,0,0,1-1.469,1.469h1.711a1.473,1.473,0,0,0,1.469-1.469V250.07c-.559.018-1.149,0-1.711,0Z" transform="translate(-118.669 -228.025)" fill="#b1b1b5" fill-rule="evenodd"/>
          <path id="Trazado_979700" data-name="Trazado 979700" d="M80.463,231.687H91.257v2.936a1.473,1.473,0,0,1-1.469,1.469H81.932a1.473,1.473,0,0,1-1.469-1.469v-2.936Z" transform="translate(-76.821 -211.996)" fill="#eceff1" fill-rule="evenodd"/>
          <path id="Trazado_979701" data-name="Trazado 979701" d="M141.395,243.143v1.469a1.473,1.473,0,0,1-1.469,1.469h1.76a1.473,1.473,0,0,0,1.42-1.468v-1.469Z" transform="translate(-128.67 -221.985)" fill="#d1d1d6" fill-rule="evenodd"/>
          <path id="Trazado_979702" data-name="Trazado 979702" d="M61.063,77.915A9.039,9.039,0,0,1,70.1,86.954c0,5.02-3.207,4.72-3.642,12.119H55.667c-.435-7.4-3.642-7.1-3.642-12.119A9.038,9.038,0,0,1,61.063,77.915Z" transform="translate(-52.025 -77.915)" fill="#ffe177" fill-rule="evenodd"/>
          <path id="Trazado_979703" data-name="Trazado 979703" d="M115.929,77.955a9.04,9.04,0,0,1,8.183,9c0,4.663-2.767,4.736-3.509,10.652-.057.453-.1.941-.133,1.467h1.711c.435-7.4,3.642-7.1,3.642-12.119a9.039,9.039,0,0,0-9.039-9.039Q116.352,77.915,115.929,77.955Z" transform="translate(-107.746 -77.915)" fill="#ffd064" fill-rule="evenodd"/>
        </g>
        <g id="Grupo_1145575" data-name="Grupo 1145575" transform="translate(18.167 7.7)">
          <path id="Trazado_979704" data-name="Trazado 979704" d="M329.392,143.054a2.505,2.505,0,1,0-2.505-2.505A2.51,2.51,0,0,0,329.392,143.054Z" transform="translate(-309.858 -138.044)" fill="#837683" fill-rule="evenodd"/>
          <path id="Trazado_979705" data-name="Trazado 979705" d="M329.391,138.044a2.525,2.525,0,0,1,.444.039,2.506,2.506,0,0,0,0,4.932,2.505,2.505,0,1,1-.444-4.971Z" transform="translate(-309.857 -138.044)" fill="#685e68" fill-rule="evenodd"/>
          <path id="Trazado_979706" data-name="Trazado 979706" d="M292.768,288.081a9.255,9.255,0,0,1,7.783,4.239.64.64,0,0,1-.538.988H285.522a.64.64,0,0,1-.538-.988A9.256,9.256,0,0,1,292.768,288.081Z" transform="translate(-273.229 -268.869)" fill="#837683" fill-rule="evenodd"/>
          <path id="Trazado_979707" data-name="Trazado 979707" d="M342.125,288.081a9.255,9.255,0,0,1,7.783,4.239.64.64,0,0,1-.538.988h-1.28a.64.64,0,0,0,.538-.988,9.258,9.258,0,0,0-7.143-4.217Q341.8,288.081,342.125,288.081Z" transform="translate(-322.586 -268.869)" fill="#685e68" fill-rule="evenodd"/>
          <path id="Trazado_979708" data-name="Trazado 979708" d="M407.647,227.589a.924.924,0,0,1,.9-1.136H418.4s.141.012.155.014a.922.922,0,0,1,.754,1.064,5.922,5.922,0,0,1-11.662.058Z" transform="translate(-380.254 -215.132)" fill="#ffe177" fill-rule="evenodd"/>
          <path id="Trazado_979709" data-name="Trazado 979709" d="M453.156,226.453h1.154s.141.012.155.014a.922.922,0,0,1,.754,1.064,5.936,5.936,0,0,1-5.836,4.915c-.194,0-.387-.01-.577-.029a5.938,5.938,0,0,0,5.259-4.887.922.922,0,0,0-.754-1.064C453.3,226.465,453.156,226.453,453.156,226.453Z" transform="translate(-416.165 -215.132)" fill="#ffd064" fill-rule="evenodd"/>
          <path id="Trazado_979710" data-name="Trazado 979710" d="M193.923,227.589a.924.924,0,0,1,.9-1.136h9.854a.938.938,0,0,1,.155.013.922.922,0,0,1,.754,1.064,5.922,5.922,0,0,1-11.662.058Z" transform="translate(-193.898 -215.132)" fill="#ffe177" fill-rule="evenodd"/>
          <path id="Trazado_979711" data-name="Trazado 979711" d="M239.431,226.453h1.154a.938.938,0,0,1,.155.013.922.922,0,0,1,.754,1.064,5.936,5.936,0,0,1-5.836,4.915c-.194,0-.387-.01-.577-.029a5.938,5.938,0,0,0,5.259-4.887.922.922,0,0,0-.909-1.077Z" transform="translate(-229.807 -215.132)" fill="#ffd064" fill-rule="evenodd"/>
        </g>
      </g>
      <path id="Trazado_979712" data-name="Trazado 979712" d="M33.594,39.913a1.024,1.024,0,0,1,.375-1.4l1.844-1.064a1.025,1.025,0,0,1,1.025,1.774l-1.844,1.064a1.024,1.024,0,0,1-1.4-.375ZM28.6,33.9l1.064-1.844a1.024,1.024,0,1,1,1.774,1.024l-1.065,1.844a1.023,1.023,0,0,1-.888.512,1.012,1.012,0,0,1-.511-.137A1.023,1.023,0,0,1,28.6,33.9Zm-16.85,6.015a1.024,1.024,0,0,1-1.4.375L8.511,39.223a1.024,1.024,0,1,1,1.024-1.774l1.844,1.064A1.025,1.025,0,0,1,11.754,39.913Zm2.151-6.834a1.025,1.025,0,1,1,1.775-1.024L16.744,33.9a1.024,1.024,0,0,1-1.775,1.024Zm7.745-.495V30.454a1.024,1.024,0,0,1,2.049,0v2.129a1.024,1.024,0,0,1-2.049,0Zm3.61,13.236V44.743a1.076,1.076,0,1,1,1.075,1.076Zm-10.6-1.142A7.413,7.413,0,0,0,16,49.018a14.619,14.619,0,0,1,2.226,6.753h1.865v-7.9H19.013a3.125,3.125,0,1,1,3.125-3.125v1.076h1.073V44.743a3.125,3.125,0,1,1,3.125,3.125H25.26v7.9h1.864a14.618,14.618,0,0,1,2.227-6.753,7.426,7.426,0,0,0,1.337-4.341,8.014,8.014,0,0,0-16.028,0Zm8.967,19.907H21.721a.45.45,0,0,1-.444-.444V63.7h2.794v.445A.451.451,0,0,1,23.627,64.584Zm1.506-2.938H20.215a.45.45,0,0,1-.444-.444v-.445h5.807V61.2A.451.451,0,0,1,25.133,61.647Zm1.913-3.826v.444a.45.45,0,0,1-.444.444H18.746a.45.45,0,0,1-.444-.444v-.444Zm-3.835-2.049H22.138v-7.9h1.073Zm-3.121-9.952H19.013a1.076,1.076,0,1,1,1.076-1.076ZM16.253,58.265a2.5,2.5,0,0,0,1.468,2.27V61.2a2.5,2.5,0,0,0,1.507,2.289v.649a2.5,2.5,0,0,0,2.493,2.493h1.906A2.5,2.5,0,0,0,26.12,64.14v-.649A2.5,2.5,0,0,0,27.626,61.2v-.667a2.493,2.493,0,0,0,1.469-2.27V56.832a12.924,12.924,0,0,1,2.025-6.778,9.427,9.427,0,0,0,1.617-5.376,10.063,10.063,0,1,0-20.126,0,9.422,9.422,0,0,0,1.619,5.376,12.942,12.942,0,0,1,2.023,6.776v1.436Zm2.97,14.617a.758.758,0,1,1-.665-.841.759.759,0,0,1,.665.841Zm34.367,7.73L38.127,85.228a4.034,4.034,0,0,1-3.284-.406l-8.935-5.159a1.028,1.028,0,0,0-.778-.1l-1.346.361-1.73-6.682,5.961-1.605c1.82-.49,2.94-.444,3.867.158.4.26.862.581,1.394.952a39.668,39.668,0,0,0,5.555,3.407,1.153,1.153,0,0,1,.4,1.518c-.116.2-.469.81-1.513.4-1-.5-1.934-1.061-2.922-1.653-.475-.285-.967-.58-1.477-.874A1.024,1.024,0,1,0,32.3,77.318c.5.286.98.576,1.448.857,1.036.621,3.131,1.765,3.139,1.768l.87.392a5.9,5.9,0,0,0,4.1.359l8.455-2.3c2.19-.6,3.72-.372,3.993.585a1.428,1.428,0,0,1-.715,1.632Zm-31.1,2.844a.1.1,0,0,0,.066-.11L19.377,71.07a.085.085,0,0,0-.043-.054A.088.088,0,0,0,19.289,71l-.022,0-2.363.612a.093.093,0,0,0-.065.11L20.016,84a.093.093,0,0,0,.11.065Zm27.285-7.038-8.456,2.3c-.125.034-.248.061-.372.083.022-.035.044-.071.066-.108A3.222,3.222,0,0,0,39.9,74.4a.918.918,0,0,0-.12-.067,37.732,37.732,0,0,1-5.329-3.268c-.525-.366-1.022-.712-1.451-.991-1.826-1.184-3.812-.876-5.515-.417l-5.942,1.6-.18-.7a2.143,2.143,0,0,0-2.608-1.535l-2.363.612a2.141,2.141,0,0,0-1.535,2.607l3.177,12.276a2.139,2.139,0,0,0,2.607,1.535L23,85.439a2.141,2.141,0,0,0,1.535-2.607L24.3,81.9l.954-.256L33.818,86.6a6.091,6.091,0,0,0,4.9.595l15.462-4.616a3.459,3.459,0,0,0,2.1-4.158c-.234-.82-1.395-3.389-6.5-2ZM65.018,58.931a4.508,4.508,0,0,1-4.07-2.552H69.1A4.525,4.525,0,0,1,65.018,58.931Zm0-10.79,3.671,6.189H61.352Zm-13.681-.817a1.481,1.481,0,1,1,1.48-1.481A1.483,1.483,0,0,1,51.337,47.324Zm6.511,19.429H44.833a8.252,8.252,0,0,1,13.015,0ZM41.321,54.331H33.985l3.669-6.189Zm-3.668,4.6a4.511,4.511,0,0,1-4.074-2.552h8.148A4.51,4.51,0,0,1,37.654,58.931Zm33.717-4.1a1.039,1.039,0,0,1,.127.7,6.572,6.572,0,0,1-12.952,0,1.023,1.023,0,0,1,.128-.7l4.3-7.248A7.358,7.358,0,0,1,59.12,47a7.078,7.078,0,0,0-4.336-.4,3.541,3.541,0,0,1-2.422,2.62l0,12.359A10.362,10.362,0,0,1,60.6,67.331a1.025,1.025,0,0,1-.922,1.471H43a1.023,1.023,0,0,1-.92-1.471,10.359,10.359,0,0,1,8.236-5.752l0-12.358A3.54,3.54,0,0,1,47.89,46.6a7.079,7.079,0,0,0-4.336.4,7.361,7.361,0,0,1-3.849.58L44,54.833a1.029,1.029,0,0,1,.128.7,6.573,6.573,0,0,1-12.953,0,1.033,1.033,0,0,1,.128-.7l5.467-9.222a1.027,1.027,0,0,1,1.155-.465c2.745.761,3.7.4,4.9-.056a8.914,8.914,0,0,1,5.224-.536,3.529,3.529,0,0,1,6.569,0,8.913,8.913,0,0,1,5.224.536c1.2.456,2.156.817,4.9.056a1.027,1.027,0,0,1,1.157.465Z" fill-rule="evenodd"/>
    </g>
  </g>
</svg>
