<svg xmlns="http://www.w3.org/2000/svg" xmlns:xlink="http://www.w3.org/1999/xlink" width="108" height="108" viewBox="0 0 108 108">
  <defs>
    <filter id="Trazado_978624" x="0" y="0" width="108" height="108" filterUnits="userSpaceOnUse">
      <feOffset dy="3" input="SourceAlpha"/>
      <feGaussianBlur stdDeviation="3" result="blur"/>
      <feFlood flood-opacity="0.161"/>
      <feComposite operator="in" in2="blur"/>
      <feComposite in="SourceGraphic"/>
    </filter>
  </defs>
  <g id="_8" data-name="8" transform="translate(-201 -1411)">
    <g transform="matrix(1, 0, 0, 1, 201, 1411)" filter="url(#Trazado_978624)">
      <g id="Trazado_978624-2" data-name="Trazado 978624" transform="translate(9 6)" fill="#f5e9a1">
        <path d="M 45 88.5 C 39.12687683105469 88.5 33.43022537231445 87.35007476806641 28.06830024719238 85.08217620849609 C 22.88852500915527 82.89131164550781 18.23629951477051 79.75458526611328 14.2408504486084 75.75914764404297 C 10.24541282653809 71.76370239257812 7.108687400817871 67.11147308349609 4.917825222015381 61.93170166015625 C 2.649924993515015 56.56977462768555 1.5 50.87312316894531 1.5 45 C 1.5 39.12687683105469 2.649924993515015 33.43022537231445 4.917825222015381 28.06830024719238 C 7.108687400817871 22.88852500915527 10.24541282653809 18.23629951477051 14.2408504486084 14.2408504486084 C 18.23629951477051 10.24541282653809 22.88852500915527 7.108687400817871 28.06830024719238 4.917825222015381 C 33.43022537231445 2.649924993515015 39.12687683105469 1.5 45 1.5 C 50.87312316894531 1.5 56.56977462768555 2.649924993515015 61.93170166015625 4.917825222015381 C 67.11147308349609 7.108687400817871 71.76370239257812 10.24541282653809 75.75914764404297 14.2408504486084 C 79.75458526611328 18.23629951477051 82.89131164550781 22.88852500915527 85.08217620849609 28.06830024719238 C 87.35007476806641 33.43022537231445 88.5 39.12687683105469 88.5 45 C 88.5 50.87312316894531 87.35007476806641 56.56977462768555 85.08217620849609 61.93170166015625 C 82.89131164550781 67.11147308349609 79.75458526611328 71.76370239257812 75.75914764404297 75.75914764404297 C 71.76370239257812 79.75458526611328 67.11147308349609 82.89131164550781 61.93170166015625 85.08217620849609 C 56.56977462768555 87.35007476806641 50.87312316894531 88.5 45 88.5 Z" stroke="none"/>
        <path d="M 45 3 C 39.32871246337891 3 33.82865524291992 4.110054016113281 28.65262985229492 6.299339294433594 C 23.65165710449219 8.414573669433594 19.15968322753906 11.44334411621094 15.301513671875 15.301513671875 C 11.44334411621094 19.15968322753906 8.414573669433594 23.65165710449219 6.299339294433594 28.65262985229492 C 4.110054016113281 33.82865524291992 3 39.32871246337891 3 45 C 3 50.67128753662109 4.110054016113281 56.17134475708008 6.299339294433594 61.34737396240234 C 8.414573669433594 66.34834289550781 11.44334411621094 70.84031677246094 15.301513671875 74.698486328125 C 19.15968322753906 78.55665588378906 23.65165710449219 81.58542633056641 28.65262985229492 83.70066070556641 C 33.82865524291992 85.88994598388672 39.32871246337891 87 45 87 C 50.67128753662109 87 56.17134475708008 85.88994598388672 61.34737396240234 83.70066070556641 C 66.34834289550781 81.58542633056641 70.84031677246094 78.55665588378906 74.698486328125 74.698486328125 C 78.55665588378906 70.84031677246094 81.58542633056641 66.34834289550781 83.70066070556641 61.34737396240234 C 85.88994598388672 56.17134475708008 87 50.67128753662109 87 45 C 87 39.32871246337891 85.88994598388672 33.82865524291992 83.70066070556641 28.65262985229492 C 81.58542633056641 23.65165710449219 78.55665588378906 19.15968322753906 74.698486328125 15.301513671875 C 70.84031677246094 11.44334411621094 66.34834289550781 8.414573669433594 61.34737396240234 6.299339294433594 C 56.17134475708008 4.110054016113281 50.67128753662109 3 45 3 M 45 0 C 69.85281372070312 0 90 20.14718627929688 90 45 C 90 69.85281372070312 69.85281372070312 90 45 90 C 20.14718627929688 90 0 69.85281372070312 0 45 C 0 20.14718627929688 20.14718627929688 0 45 0 Z" stroke="none" fill="#083e61"/>
      </g>
    </g>
    <g id="Fill_out_line" data-name="Fill out line" transform="translate(211.977 1418.977)">
      <path id="Trazado_979348" data-name="Trazado 979348" d="M369.892,31.536a2.355,2.355,0,0,0,2.355-2.355V27.768A3.768,3.768,0,0,0,368.478,24H360v7.536Z" transform="translate(-303.492 -7.058)" fill="#f0bca1"/>
      <path id="Trazado_979349" data-name="Trazado 979349" d="M120.03,78.639H88V27.768A3.768,3.768,0,0,1,91.768,24h35.8a3.768,3.768,0,0,0-3.768,3.768v47.1A3.768,3.768,0,0,1,120.03,78.639Z" transform="translate(-63.522 -7.058)" fill="#ffd9b5"/>
      <path id="Trazado_979350" data-name="Trazado 979350" d="M306.355,424a2.355,2.355,0,0,1,2.355,2.355v1.413H304V424Z" transform="translate(-254.086 -359.956)" fill="#f5c9aa"/>
      <path id="Trazado_979351" data-name="Trazado 979351" d="M56.972,429.181a2.355,2.355,0,0,0,2.355,2.355H26.355A2.355,2.355,0,0,1,24,429.181v-2.826A2.355,2.355,0,0,1,26.355,424H59.327a2.355,2.355,0,0,0-2.355,2.355Z" transform="translate(-7.058 -359.956)" fill="#ffe3cd"/>
      <path id="Trazado_979352" data-name="Trazado 979352" d="M392,56h3.768v1.413a2.355,2.355,0,0,0,2.355,2.355H392Z" transform="translate(-331.724 -35.29)" fill="#f5c9aa"/>
      <path id="Trazado_979353" data-name="Trazado 979353" d="M219.768,113.421H216l.942-9.421h1.884Z" transform="translate(-176.449 -77.637)" fill="#ba8b5d"/>
      <path id="Trazado_979354" data-name="Trazado 979354" d="M131.768,141.652A3.772,3.772,0,0,1,128,137.884v-.942a.942.942,0,0,1,.942-.942h5.652a.942.942,0,0,1,.942.942v.942A3.772,3.772,0,0,1,131.768,141.652Z" transform="translate(-98.811 -105.869)" fill="#fab53f"/>
      <path id="Trazado_979355" data-name="Trazado 979355" d="M275.768,141.652A3.773,3.773,0,0,1,272,137.884v-.942a.942.942,0,0,1,.942-.942h5.652a.942.942,0,0,1,.942.942v.942A3.772,3.772,0,0,1,275.768,141.652Z" transform="translate(-225.854 -105.869)" fill="#fab53f"/>
      <rect id="Rectángulo_405838" data-name="Rectángulo 405838" width="9.814" height="3.775" rx="1.887" transform="translate(36.383 35.532)" fill="#9f764a"/>
      <path id="Trazado_979356" data-name="Trazado 979356" d="M158.609,62.19a1.884,1.884,0,0,0-1.884-1.884h-.942a5.329,5.329,0,0,0-7.536,0h-1.884a5.329,5.329,0,0,0-7.536,0h-.942a1.884,1.884,0,0,0,0,3.768h.942a5.329,5.329,0,0,1,7.536,0h1.884a5.329,5.329,0,0,1,7.536,0h.942A1.884,1.884,0,0,0,158.609,62.19Z" transform="translate(-105.869 -37.712)" fill="#9f764a"/>
      <path id="Trazado_979357" data-name="Trazado 979357" d="M368.015,145.884l-1.463,2.925-.843,1.686-9,18L352,173.2l.661-4.628.281-1.967,9-18,.843-1.685L364.247,144Z" transform="translate(-296.434 -112.927)" fill="#529ddf"/>
      <path id="Trazado_979358" data-name="Trazado 979358" d="M361.66,337.884l-1.4,1.4-2.645-1.322.281-1.966Z" transform="translate(-301.383 -282.318)" fill="#4384c3"/>
      <path id="Trazado_979359" data-name="Trazado 979359" d="M355.305,354.022,352,357.328l.661-4.628Z" transform="translate(-296.434 -297.051)" fill="#68737f"/>
      <path id="Trazado_979360" data-name="Trazado 979360" d="M361.378,137.982l-3.768-1.884a.942.942,0,0,0-1.264.421l-1.463,2.926-.915-.457a3.062,3.062,0,0,0-4.183,1.532l-1.941,4.528,1.732.742,1.941-4.528a1.177,1.177,0,0,1,1.609-.589l.915.458-9,18a.944.944,0,0,0-.09.288l-.942,6.594a.942.942,0,0,0,1.6.8l4.71-4.71a.944.944,0,0,0,.176-.245l11.3-22.609a.942.942,0,0,0-.421-1.264Zm-12.5,22.894-2.6,2.6.521-3.645,8.931-17.862,2.083,1.041Zm9.773-19.547-2.083-1.041,1.041-2.083,2.083,1.042Z" transform="translate(-289.375 -105.868)"/>
      <path id="Trazado_979361" data-name="Trazado 979361" d="M81.885,20.71a2.829,2.829,0,0,1,2.826-2.826h32.032a4.686,4.686,0,0,0-.944,2.826v11.3h1.884V20.71a2.829,2.829,0,0,1,2.826-2.826h.942a2.829,2.829,0,0,1,2.826,2.826v1.413a1.413,1.413,0,1,1-2.826,0V20.71a.942.942,0,0,0-.942-.942h-1.884v1.884h.942v.471a3.278,3.278,0,0,0,.318,1.413h-1.26V25.42h4.239a3.3,3.3,0,0,0,3.3-3.3V20.71a4.716,4.716,0,0,0-4.71-4.71H84.711A4.716,4.716,0,0,0,80,20.71V61.218h1.884Z" transform="translate(-56.464 0)"/>
      <path id="Trazado_979362" data-name="Trazado 979362" d="M59.334,392.478a2.829,2.829,0,0,1-2.826,2.826H52.269a1.415,1.415,0,0,1-1.413-1.413v-2.826a1.413,1.413,0,1,1,2.826,0v.471H51.8v1.884h2.826a.942.942,0,0,0,.942-.942v-1.413a3.3,3.3,0,0,0-3.3-3.3H19.3a3.3,3.3,0,0,0-3.3,3.3v2.826a3.3,3.3,0,0,0,3.3,3.3H56.508a4.716,4.716,0,0,0,4.71-4.71V384H59.334ZM49.29,395.3H19.3a1.415,1.415,0,0,1-1.413-1.413v-2.826a1.415,1.415,0,0,1,1.413-1.413H49.29a3.278,3.278,0,0,0-.318,1.413v2.826A3.278,3.278,0,0,0,49.29,395.3Z" transform="translate(0 -324.666)"/>
      <path id="Trazado_979363" data-name="Trazado 979363" d="M128,60.247a3.768,3.768,0,0,0,7.536,0V59.3a.936.936,0,0,0-.135-.484h0l-2.416-4.027a4.387,4.387,0,0,1,5.334.178l-.81,8.1h-.09a2.826,2.826,0,0,0,0,5.652h5.652a2.826,2.826,0,1,0,0-5.652h-.09l-.81-8.1a4.387,4.387,0,0,1,5.334-.178L145.09,58.82h0a.936.936,0,0,0-.135.484v.942a3.768,3.768,0,1,0,7.536,0V59.3a.936.936,0,0,0-.135-.484h0l-2.019-3.365a2.826,2.826,0,0,0-.673-5.571h-.57a6.271,6.271,0,0,0-7.909-.3V48H139.3v1.582a6.271,6.271,0,0,0-7.909.3h-.57a2.826,2.826,0,0,0-.673,5.571l-2.019,3.365h0A.936.936,0,0,0,128,59.3Zm3.768,1.884a1.886,1.886,0,0,1-1.884-1.884h3.768a1.886,1.886,0,0,1-1.884,1.884Zm1.162-3.768H130.6l1.162-1.937ZM144.013,65.9a.943.943,0,0,1-.942.942h-5.652a.942.942,0,0,1,0-1.884h5.652A.943.943,0,0,1,144.013,65.9ZM139.4,63.073l.754-7.536h.179l.754,7.536Zm10.484-4.71h-2.325l1.162-1.937Zm-1.162,3.768a1.886,1.886,0,0,1-1.884-1.884h3.768A1.886,1.886,0,0,1,148.724,62.131Zm-17.9-10.363h.942a.942.942,0,0,0,.666-.276,4.387,4.387,0,0,1,6.2,0,.942.942,0,0,0,.666.276h1.884a.942.942,0,0,0,.666-.276,4.387,4.387,0,0,1,6.2,0,.942.942,0,0,0,.666.276h.942a.942.942,0,1,1,0,1.884h-.57a6.272,6.272,0,0,0-8.281,0h-1.139a6.272,6.272,0,0,0-8.281,0h-.57a.942.942,0,1,1,0-1.884Z" transform="translate(-98.81 -28.232)"/>
      <path id="Trazado_979364" data-name="Trazado 979364" d="M112,224h5.652v1.884H112Z" transform="translate(-84.695 -183.507)"/>
      <path id="Trazado_979365" data-name="Trazado 979365" d="M112,256h7.536v1.884H112Z" transform="translate(-84.695 -211.738)"/>
      <path id="Trazado_979366" data-name="Trazado 979366" d="M192,256h7.536v1.884H192Z" transform="translate(-155.275 -211.738)"/>
      <path id="Trazado_979367" data-name="Trazado 979367" d="M272,256h11.3v1.884H272Z" transform="translate(-225.854 -211.738)"/>
      <path id="Trazado_979368" data-name="Trazado 979368" d="M112,384h7.536v1.884H112Z" transform="translate(-84.695 -324.666)"/>
      <path id="Trazado_979369" data-name="Trazado 979369" d="M192,384h11.3v1.884H192Z" transform="translate(-155.275 -324.666)"/>
      <path id="Trazado_979370" data-name="Trazado 979370" d="M112,288h3.768v1.884H112Z" transform="translate(-84.695 -239.97)"/>
      <path id="Trazado_979371" data-name="Trazado 979371" d="M160,288h9.421v1.884H160Z" transform="translate(-127.043 -239.97)"/>
      <path id="Trazado_979372" data-name="Trazado 979372" d="M256,288h11.3v1.884H256Z" transform="translate(-211.738 -239.97)"/>
      <path id="Trazado_979373" data-name="Trazado 979373" d="M112,352h3.768v1.884H112Z" transform="translate(-84.695 -296.434)"/>
      <path id="Trazado_979374" data-name="Trazado 979374" d="M160,352h9.421v1.884H160Z" transform="translate(-127.043 -296.434)"/>
      <path id="Trazado_979375" data-name="Trazado 979375" d="M256,352h8.478v1.884H256Z" transform="translate(-211.738 -296.434)"/>
      <path id="Trazado_979376" data-name="Trazado 979376" d="M112,320h16.015v1.884H112Z" transform="translate(-84.695 -268.202)"/>
    </g>
  </g>
</svg>
