<svg xmlns="http://www.w3.org/2000/svg" width="35.406" height="35.409" viewBox="0 0 35.406 35.409">
  <path id="_15" data-name="15" d="M13.513,280.6a7.094,7.094,0,0,0-7.083,7.084c0,.226.01.449.025.675a.591.591,0,1,0,1.177-.075c-.013-.209-.022-.408-.022-.6a5.9,5.9,0,1,1,11.8,0,10.743,10.743,0,0,1-.287,2.351,1.946,1.946,0,0,0-.382.076,1.773,1.773,0,0,0-1.692-1.252,1.75,1.75,0,0,1-1.768-1.768.59.59,0,1,0-1.18,0,1.751,1.751,0,0,1-1.769,1.768H9.971a1.779,1.779,0,0,0-1.687,1.266,1.905,1.905,0,0,0-1.048-.032A1.846,1.846,0,0,0,5.843,291.8,2.878,2.878,0,0,0,8.5,294.742a5.29,5.29,0,0,0,1.474,2.2V298.3h0a.59.59,0,0,0-.414.174l-1.181,1.181a.59.59,0,0,0-.148.588l3.789,12.308-4.35-5.536.52-2.081a.59.59,0,0,0-.156-.56L6.49,302.837l.568-2.424a.59.59,0,0,0-.574-.725.607.607,0,0,0-.142.018,7.663,7.663,0,0,0-5.814,7.447v8.262a.59.59,0,0,0,.59.59H22.954a.59.59,0,1,0,0-1.18H14.727l5.741-7.308a.59.59,0,0,0,.108-.507l-.509-2.037,1.534-1.534a.59.59,0,0,0,.161-.533l-.335-1.693A6.394,6.394,0,0,1,24,303.221a.591.591,0,0,0,.941-.715,7.34,7.34,0,0,0-4.148-2.741.59.59,0,0,0-.72.689l.475,2.373L19,304.375a.59.59,0,0,0-.156.56l.52,2.081-4.351,5.538,3.789-12.31a.59.59,0,0,0-.149-.588l-1.18-1.181a.59.59,0,0,0-.418-.173v-1.36a5.272,5.272,0,0,0,1.475-2.195,2.859,2.859,0,0,0,2.659-2.948,1.806,1.806,0,0,0-.915-1.505,11.915,11.915,0,0,0,.323-2.613,7.091,7.091,0,0,0-7.079-7.084Zm1.179,8.263a2.92,2.92,0,0,0,2.358,1.177.581.581,0,0,1,.592.594v2.36a4.132,4.132,0,0,1-8.264,0v-2.36a.581.581,0,0,1,.592-.594h2.362a2.921,2.921,0,0,0,2.359-1.177ZM8.2,291.417v1.573c0,.169.01.336.025.5a1.645,1.645,0,0,1-1.2-1.674A.687.687,0,0,1,8.2,291.417Zm11.8.406a1.682,1.682,0,0,1-1.2,1.67c.016-.165.025-.333.025-.5v-1.571A.688.688,0,0,1,20,291.823Zm-4.125,5.921V299.1l-2.362,1.969L11.153,299.1v-1.359a5.29,5.29,0,0,0,4.722,0Zm-5.868,1.947,2.539,2.115-2.136,1.525-.952-3.1Zm7.009,0,.549.544-.952,3.095L14.477,301.8ZM5.668,301.17l-.4,1.716a.59.59,0,0,0,.157.552l1.534,1.534-.509,2.037a.59.59,0,0,0,.108.507l5.741,7.308H5.843v-4.13a.591.591,0,1,0-1.181,0v4.13H1.709v-7.672A6.566,6.566,0,0,1,5.668,301.17Zm26.454,4.7-2.036,4.581a.585.585,0,0,0-.047.24,3.486,3.486,0,0,0,.356,1.442,2.982,2.982,0,0,0,5.183,0,3.489,3.489,0,0,0,.357-1.442.6.6,0,0,0-.047-.24l-2.037-4.584a3.023,3.023,0,0,0,1.322-.662.59.59,0,0,0-.831-.837,2.335,2.335,0,0,1-1.357.418c-1.49-.022-2.14-1.022-4.13-1.153V302.43a.588.588,0,0,0-.582-.6v0s-.007,0-.009,0a.59.59,0,0,0-.582.6v1.208c-1.989.13-2.64,1.131-4.13,1.153a2.334,2.334,0,0,1-1.357-.418.59.59,0,0,0-.831.837,3.022,3.022,0,0,0,1.322.662L20.65,310.45a.59.59,0,0,0-.047.24,3.477,3.477,0,0,0,.357,1.442,2.709,2.709,0,0,0,2.591,1.506,2.71,2.71,0,0,0,2.592-1.506,3.479,3.479,0,0,0,.356-1.442.6.6,0,0,0-.047-.24l-2.036-4.581c1.207-.192,1.916-1.08,3.847-1.081s2.648.894,3.857,1.086Zm-18.609-3.307.924.66-.649.976h-.549l-.651-.976Zm-1.885,1.346.674,1.012-.493,2.952-1.032-3.356Zm3.771,0,.847.605-1.032,3.352-.491-2.944Zm-1.978,1.47H13.6l.834,5.012-.928,3.013-.924-3.006Zm14.85.574a.566.566,0,0,0-.589.59v8.271H25.292A.59.59,0,0,0,25.32,316h2.945v0h2.954a.59.59,0,0,0,.028-1.18H28.856v-8.271a.565.565,0,0,0-.582-.589v-.007Zm-4.72.871L25,310.1H22.1Zm9.435,0,1.449,3.266h-2.9Zm-11.1,4.443h3.33a1.556,1.556,0,0,1-1.664,1.18A1.558,1.558,0,0,1,21.887,311.277Zm9.434,0h3.33a1.764,1.764,0,0,1-3.33,0Z" transform="translate(-0.529 -280.596)"/>
</svg>
