<svg xmlns="http://www.w3.org/2000/svg" xmlns:xlink="http://www.w3.org/1999/xlink" width="108" height="108" viewBox="0 0 108 108">
  <defs>
    <filter id="Trazado_978624" x="0" y="0" width="108" height="108" filterUnits="userSpaceOnUse">
      <feOffset dy="3" input="SourceAlpha"/>
      <feGaussianBlur stdDeviation="3" result="blur"/>
      <feFlood flood-opacity="0.161"/>
      <feComposite operator="in" in2="blur"/>
      <feComposite in="SourceGraphic"/>
    </filter>
  </defs>
  <g id="_30" data-name="30" transform="translate(-202 -2957)">
    <g transform="matrix(1, 0, 0, 1, 202, 2957)" filter="url(#Trazado_978624)">
      <g id="Trazado_978624-2" data-name="Trazado 978624" transform="translate(9 6)" fill="#f5e9a1">
        <path d="M 45 88.5 C 39.12687683105469 88.5 33.43022537231445 87.35007476806641 28.06830024719238 85.08217620849609 C 22.88852500915527 82.89131164550781 18.23629951477051 79.75458526611328 14.2408504486084 75.75914764404297 C 10.24541282653809 71.76370239257812 7.108687400817871 67.11147308349609 4.917825222015381 61.93170166015625 C 2.649924993515015 56.56977462768555 1.5 50.87312316894531 1.5 45 C 1.5 39.12687683105469 2.649924993515015 33.43022537231445 4.917825222015381 28.06830024719238 C 7.108687400817871 22.88852500915527 10.24541282653809 18.23629951477051 14.2408504486084 14.2408504486084 C 18.23629951477051 10.24541282653809 22.88852500915527 7.108687400817871 28.06830024719238 4.917825222015381 C 33.43022537231445 2.649924993515015 39.12687683105469 1.5 45 1.5 C 50.87312316894531 1.5 56.56977462768555 2.649924993515015 61.93170166015625 4.917825222015381 C 67.11147308349609 7.108687400817871 71.76370239257812 10.24541282653809 75.75914764404297 14.2408504486084 C 79.75458526611328 18.23629951477051 82.89131164550781 22.88852500915527 85.08217620849609 28.06830024719238 C 87.35007476806641 33.43022537231445 88.5 39.12687683105469 88.5 45 C 88.5 50.87312316894531 87.35007476806641 56.56977462768555 85.08217620849609 61.93170166015625 C 82.89131164550781 67.11147308349609 79.75458526611328 71.76370239257812 75.75914764404297 75.75914764404297 C 71.76370239257812 79.75458526611328 67.11147308349609 82.89131164550781 61.93170166015625 85.08217620849609 C 56.56977462768555 87.35007476806641 50.87312316894531 88.5 45 88.5 Z" stroke="none"/>
        <path d="M 45 3 C 39.32871246337891 3 33.82865524291992 4.110054016113281 28.65262985229492 6.299339294433594 C 23.65165710449219 8.414573669433594 19.15968322753906 11.44334411621094 15.301513671875 15.301513671875 C 11.44334411621094 19.15968322753906 8.414573669433594 23.65165710449219 6.299339294433594 28.65262985229492 C 4.110054016113281 33.82865524291992 3 39.32871246337891 3 45 C 3 50.67128753662109 4.110054016113281 56.17134475708008 6.299339294433594 61.34737396240234 C 8.414573669433594 66.34834289550781 11.44334411621094 70.84031677246094 15.301513671875 74.698486328125 C 19.15968322753906 78.55665588378906 23.65165710449219 81.58542633056641 28.65262985229492 83.70066070556641 C 33.82865524291992 85.88994598388672 39.32871246337891 87 45 87 C 50.67128753662109 87 56.17134475708008 85.88994598388672 61.34737396240234 83.70066070556641 C 66.34834289550781 81.58542633056641 70.84031677246094 78.55665588378906 74.698486328125 74.698486328125 C 78.55665588378906 70.84031677246094 81.58542633056641 66.34834289550781 83.70066070556641 61.34737396240234 C 85.88994598388672 56.17134475708008 87 50.67128753662109 87 45 C 87 39.32871246337891 85.88994598388672 33.82865524291992 83.70066070556641 28.65262985229492 C 81.58542633056641 23.65165710449219 78.55665588378906 19.15968322753906 74.698486328125 15.301513671875 C 70.84031677246094 11.44334411621094 66.34834289550781 8.414573669433594 61.34737396240234 6.299339294433594 C 56.17134475708008 4.110054016113281 50.67128753662109 3 45 3 M 45 0 C 69.85281372070312 0 90 20.14718627929688 90 45 C 90 69.85281372070312 69.85281372070312 90 45 90 C 20.14718627929688 90 0 69.85281372070312 0 45 C 0 20.14718627929688 20.14718627929688 0 45 0 Z" stroke="none" fill="#bcac89"/>
      </g>
    </g>
    <g id="palacio-de-justicia" transform="translate(226.024 2975.751)">
      <g id="Grupo_1145545" data-name="Grupo 1145545" transform="translate(1.386 0.861)">
        <g id="Grupo_1145541" data-name="Grupo 1145541" transform="translate(0.206 19.399)">
          <g id="Grupo_1145539" data-name="Grupo 1145539" transform="translate(4.617)">
            <g id="Grupo_1145534" data-name="Grupo 1145534">
              <g id="Grupo_1145533" data-name="Grupo 1145533" transform="translate(1.403 4.44)">
                <path id="Trazado_979628" data-name="Trazado 979628" d="M71.864,237.548H62.011l.974-23.319h7.906Z" transform="translate(-62.011 -214.229)" fill="#ffd597"/>
                <path id="Trazado_979629" data-name="Trazado 979629" d="M78.429,237.546l-.973-23.319H69.55l-.118,2.832h3.676a1.614,1.614,0,0,1,1.613,1.547l.79,18.94Z" transform="translate(-68.576 -214.227)" fill="#fcc16d"/>
              </g>
              <path id="Trazado_979630" data-name="Trazado 979630" d="M72.313,180.393H65.161a1.116,1.116,0,0,1-1.116-1.116v-2.44a1.116,1.116,0,0,1,1.116-1.116h7.152a1.116,1.116,0,0,1,1.116,1.116v2.44A1.116,1.116,0,0,1,72.313,180.393Z" transform="translate(-62.408 -175.721)" fill="#fb9927"/>
              <path id="Trazado_979631" data-name="Trazado 979631" d="M73.429,178.369v-1.532a1.116,1.116,0,0,0-1.116-1.116H65.16a1.116,1.116,0,0,0-1.116,1.116v1.532Z" transform="translate(-62.407 -175.721)" fill="#f98824"/>
              <path id="Trazado_979632" data-name="Trazado 979632" d="M61.389,409.3H50.962a1.116,1.116,0,0,1-1.116-1.116v-2.44a1.116,1.116,0,0,1,1.116-1.116H61.389a1.116,1.116,0,0,1,1.116,1.116v2.44A1.116,1.116,0,0,1,61.389,409.3Z" transform="translate(-49.846 -378.239)" fill="#fee7c9"/>
              <path id="Trazado_979633" data-name="Trazado 979633" d="M128.842,405.744v2.438a1.116,1.116,0,0,1-1.116,1.116h-2.9a1.116,1.116,0,0,0,1.116-1.116v-2.438a1.117,1.117,0,0,0-1.116-1.117h2.9A1.117,1.117,0,0,1,128.842,405.744Z" transform="translate(-116.183 -378.235)" fill="#ffd597"/>
            </g>
            <g id="Grupo_1145536" data-name="Grupo 1145536" transform="translate(17.437)">
              <g id="Grupo_1145535" data-name="Grupo 1145535" transform="translate(1.403 4.44)">
                <path id="Trazado_979634" data-name="Trazado 979634" d="M223.1,237.548h-9.853l.974-23.319h7.906Z" transform="translate(-213.247 -214.229)" fill="#ffd597"/>
                <path id="Trazado_979635" data-name="Trazado 979635" d="M229.666,237.546l-.974-23.319h-7.905l-.118,2.832h3.676a1.614,1.614,0,0,1,1.613,1.547l.791,18.94Z" transform="translate(-219.812 -214.227)" fill="#fcc16d"/>
              </g>
              <path id="Trazado_979636" data-name="Trazado 979636" d="M223.549,180.393H216.4a1.116,1.116,0,0,1-1.116-1.116v-2.44a1.116,1.116,0,0,1,1.116-1.116h7.152a1.116,1.116,0,0,1,1.116,1.116v2.44A1.116,1.116,0,0,1,223.549,180.393Z" transform="translate(-213.644 -175.721)" fill="#fb9927"/>
              <path id="Trazado_979637" data-name="Trazado 979637" d="M224.665,178.369v-1.532a1.116,1.116,0,0,0-1.116-1.116H216.4a1.116,1.116,0,0,0-1.116,1.116v1.532Z" transform="translate(-213.643 -175.721)" fill="#f98824"/>
              <path id="Trazado_979638" data-name="Trazado 979638" d="M212.625,409.3H202.2a1.116,1.116,0,0,1-1.116-1.116v-2.44a1.116,1.116,0,0,1,1.116-1.116h10.427a1.116,1.116,0,0,1,1.116,1.116v2.44A1.116,1.116,0,0,1,212.625,409.3Z" transform="translate(-201.082 -378.239)" fill="#fee7c9"/>
              <path id="Trazado_979639" data-name="Trazado 979639" d="M280.082,405.744v2.438a1.116,1.116,0,0,1-1.116,1.116h-2.9a1.116,1.116,0,0,0,1.116-1.116v-2.438a1.117,1.117,0,0,0-1.116-1.117h2.9A1.117,1.117,0,0,1,280.082,405.744Z" transform="translate(-267.422 -378.235)" fill="#ffd597"/>
            </g>
            <g id="Grupo_1145538" data-name="Grupo 1145538" transform="translate(34.874)">
              <g id="Grupo_1145537" data-name="Grupo 1145537" transform="translate(1.403 4.44)">
                <path id="Trazado_979640" data-name="Trazado 979640" d="M374.336,237.548h-9.854l.974-23.319h7.906Z" transform="translate(-364.483 -214.229)" fill="#ffd597"/>
                <path id="Trazado_979641" data-name="Trazado 979641" d="M380.9,237.546l-.974-23.319h-7.906l-.118,2.832h3.676a1.614,1.614,0,0,1,1.613,1.547l.79,18.94Z" transform="translate(-371.048 -214.227)" fill="#fcc16d"/>
              </g>
              <path id="Trazado_979642" data-name="Trazado 979642" d="M374.785,180.393h-7.152a1.116,1.116,0,0,1-1.116-1.116v-2.44a1.116,1.116,0,0,1,1.116-1.116h7.152a1.116,1.116,0,0,1,1.116,1.116v2.44A1.116,1.116,0,0,1,374.785,180.393Z" transform="translate(-364.88 -175.721)" fill="#fb9927"/>
              <path id="Trazado_979643" data-name="Trazado 979643" d="M375.9,178.369v-1.532a1.116,1.116,0,0,0-1.116-1.116h-7.152a1.116,1.116,0,0,0-1.116,1.116v1.532Z" transform="translate(-364.88 -175.721)" fill="#f98824"/>
              <path id="Trazado_979644" data-name="Trazado 979644" d="M363.861,409.3H353.434a1.116,1.116,0,0,1-1.116-1.116v-2.44a1.116,1.116,0,0,1,1.116-1.116h10.427a1.116,1.116,0,0,1,1.116,1.116v2.44A1.116,1.116,0,0,1,363.861,409.3Z" transform="translate(-352.318 -378.239)" fill="#fee7c9"/>
              <path id="Trazado_979645" data-name="Trazado 979645" d="M431.311,405.744v2.438A1.116,1.116,0,0,1,430.2,409.3h-2.9a1.116,1.116,0,0,0,1.116-1.116v-2.438a1.117,1.117,0,0,0-1.116-1.117h2.9A1.117,1.117,0,0,1,431.311,405.744Z" transform="translate(-418.653 -378.235)" fill="#ffd597"/>
            </g>
          </g>
          <path id="Trazado_979646" data-name="Trazado 979646" d="M81.06,436.94H28.636v-2.547a1.116,1.116,0,0,1,1.116-1.116H79.944a1.116,1.116,0,0,1,1.116,1.116v2.547Z" transform="translate(-26.465 -403.581)" fill="#fb9927"/>
          <path id="Trazado_979647" data-name="Trazado 979647" d="M451.239,434.393v2.547h-3.065v-2.547a1.116,1.116,0,0,0-1.116-1.116h3.065A1.116,1.116,0,0,1,451.239,434.393Z" transform="translate(-396.644 -403.581)" fill="#f98824"/>
          <g id="Grupo_1145540" data-name="Grupo 1145540" transform="translate(0 32.76)">
            <path id="Trazado_979648" data-name="Trazado 979648" d="M65.454,465H10.919A1.116,1.116,0,0,1,9.8,463.882V460.97a1.116,1.116,0,0,1,1.116-1.116H65.454a1.116,1.116,0,0,1,1.116,1.116v2.912A1.116,1.116,0,0,1,65.454,465Z" transform="translate(-9.803 -459.854)" fill="#ffd597"/>
            <path id="Trazado_979649" data-name="Trazado 979649" d="M470.079,460.973v2.911A1.116,1.116,0,0,1,468.961,465H465.9a1.116,1.116,0,0,0,1.116-1.116v-2.911a1.116,1.116,0,0,0-1.116-1.116h3.063A1.116,1.116,0,0,1,470.079,460.973Z" transform="translate(-413.311 -459.857)" fill="#fcc16d"/>
          </g>
        </g>
        <g id="Grupo_1145542" data-name="Grupo 1145542" transform="translate(2.731 2.284)">
          <path id="Trazado_979650" data-name="Trazado 979650" d="M57.558,27.28,31.7,45.066H83.417Z" transform="translate(-31.699 -27.28)" fill="#ffd597"/>
          <path id="Trazado_979651" data-name="Trazado 979651" d="M83.416,45.064h-8.9L57.557,33.4,40.594,45.064H31.7L57.557,27.277Z" transform="translate(-31.698 -27.277)" fill="#fcc16d"/>
        </g>
        <g id="Grupo_1145543" data-name="Grupo 1145543">
          <path id="Trazado_979652" data-name="Trazado 979652" d="M62.11,30.067,36.605,12.524,11.1,30.067a1.142,1.142,0,0,1-1.588-.294L8.217,27.891A1.142,1.142,0,0,1,8.511,26.3L35.31,7.869a2.284,2.284,0,0,1,2.589,0L64.7,26.3a1.142,1.142,0,0,1,.294,1.588L63.7,29.773a1.142,1.142,0,0,1-1.588.294Z" transform="translate(-8.015 -7.467)" fill="#fee7c9"/>
        </g>
        <g id="Grupo_1145544" data-name="Grupo 1145544" transform="translate(51.6 17.167)">
          <path id="Trazado_979653" data-name="Trazado 979653" d="M460.927,159.614l-1.295,1.883a1.143,1.143,0,0,1-1.589.294l-2.5-1.716a1.157,1.157,0,0,0,1.416-.406l1.313-1.908a1.16,1.16,0,0,0-.07-1.4l2.426,1.67A1.141,1.141,0,0,1,460.927,159.614Z" transform="translate(-455.548 -156.357)" fill="#ffd597"/>
        </g>
      </g>
      <g id="Grupo_1145546" data-name="Grupo 1145546" transform="translate(0.522 0)">
        <path id="Trazado_979654" data-name="Trazado 979654" d="M57.243,52.156h-.191V51.072a1.983,1.983,0,0,0-1.981-1.981h-.464V47.77a1.983,1.983,0,0,0-1.492-1.917l-.857-20.517a1.977,1.977,0,0,0,.712-1.519V22.784l2.021,1.39a2.009,2.009,0,0,0,2.791-.516l1.295-1.882a2.007,2.007,0,0,0-.516-2.791L31.761.551a3.167,3.167,0,0,0-3.569,0L1.391,18.985a2.01,2.01,0,0,0-.516,2.791L2.17,23.658a1.993,1.993,0,0,0,1.289.836,2.024,2.024,0,0,0,.369.034,1.993,1.993,0,0,0,1.133-.354l2.021-1.39v1.032a1.977,1.977,0,0,0,.712,1.52L6.837,45.852A1.982,1.982,0,0,0,5.345,47.77v1.322H4.88A1.983,1.983,0,0,0,2.9,51.072v1.083H2.709A1.983,1.983,0,0,0,.728,54.137v2.912a1.983,1.983,0,0,0,1.981,1.981H57.243a1.983,1.983,0,0,0,1.981-1.981V54.137a1.983,1.983,0,0,0-1.981-1.981ZM41.948,49.091V47.77a.252.252,0,0,1,.251-.251H52.626a.252.252,0,0,1,.251.251v1.322ZM16.366,23.816a.252.252,0,0,1-.251.251H8.963a.252.252,0,0,1-.251-.251V21.8h7.655ZM15.672,25.8l.834,19.992H8.571L9.406,25.8ZM18.24,45.852l-.856-20.517a1.977,1.977,0,0,0,.712-1.519V21.8h6.323v2.019a1.977,1.977,0,0,0,.712,1.519l-.857,20.517a1.982,1.982,0,0,0-1.492,1.917v1.322H19.733V47.77A1.983,1.983,0,0,0,18.24,45.852Zm8.6-20.055h6.266l.835,19.992H26.008ZM33.8,23.816a.252.252,0,0,1-.251.251H26.4a.252.252,0,0,1-.251-.251V21.8H33.8ZM24.511,47.77a.252.252,0,0,1,.251-.251H35.189a.252.252,0,0,1,.251.251v1.322H24.511V47.77Zm11.166-1.917-.857-20.517a1.977,1.977,0,0,0,.712-1.519V21.8h6.323v2.019a1.977,1.977,0,0,0,.712,1.519l-.13,3.112a.865.865,0,0,0,.828.9H43.3a.865.865,0,0,0,.863-.829L44.28,25.8h6.266l.835,19.992H43.445L44,32.6a.865.865,0,1,0-1.728-.072l-.556,13.323a1.983,1.983,0,0,0-1.493,1.917v1.322H37.17V47.769a1.983,1.983,0,0,0-1.493-1.917ZM51.241,23.816a.252.252,0,0,1-.251.251H43.837a.252.252,0,0,1-.251-.251V21.8h7.655ZM3.981,22.749a.278.278,0,0,1-.386-.071L2.3,20.8a.278.278,0,0,1,.071-.386l26.8-18.434a1.428,1.428,0,0,1,1.609,0L57.58,20.41a.278.278,0,0,1,.071.386l-1.294,1.882a.278.278,0,0,1-.386.071L45.9,15.821a.865.865,0,1,0-.98,1.425l4.1,2.821H10.931l19.045-13.1,11.6,7.977a.865.865,0,1,0,.98-1.425L30.466,5.206a.865.865,0,0,0-.98,0ZM7.074,47.77a.252.252,0,0,1,.251-.251H17.752A.252.252,0,0,1,18,47.77v1.322H7.074Zm50.421,9.278a.252.252,0,0,1-.251.251H2.709a.252.252,0,0,1-.251-.251V54.136a.252.252,0,0,1,.251-.251H8.283a.865.865,0,1,0,0-1.729H4.629V51.072a.252.252,0,0,1,.251-.251H55.072a.252.252,0,0,1,.251.251v1.083H12.363a.865.865,0,1,0,0,1.729h44.88a.252.252,0,0,1,.251.251Z" transform="translate(-0.522 0)"/>
        <path id="Trazado_979655" data-name="Trazado 979655" d="M221.4,91.6h-.012V89.418a.864.864,0,0,0-.5-1.569h-2.811a.864.864,0,0,0-1.728,0h-2.811a.864.864,0,0,0-.5,1.569V91.6h-.012a.865.865,0,0,0,0,1.729h1.753a.865.865,0,0,0,0-1.729h-.012V89.579h1.582v4.25h-.966a.865.865,0,1,0,0,1.729h3.662a.865.865,0,0,0,0-1.729h-.966v-4.25h1.582V91.6h-.012a.865.865,0,1,0,0,1.729H221.4a.865.865,0,0,0,0-1.729Z" transform="translate(-187.754 -76.967)"/>
      </g>
    </g>
  </g>
</svg>
