<svg xmlns="http://www.w3.org/2000/svg" xmlns:xlink="http://www.w3.org/1999/xlink" width="578" height="334" viewBox="0 0 578 334">
  <defs>
    <clipPath id="clip-path">
      <rect id="Rectángulo_405846" data-name="Rectángulo 405846" width="578" height="334" transform="translate(2645 4702)" fill="#fff" stroke="#707070" stroke-width="1" opacity="0.53"/>
    </clipPath>
    <clipPath id="clip-path-2">
      <rect id="Rectángulo_405841" data-name="Rectángulo 405841" width="1014.183" height="1013.203" transform="translate(0 0)" fill="none"/>
    </clipPath>
    <clipPath id="clip-path-3">
      <rect id="Rectángulo_405842" data-name="Rectángulo 405842" width="770.987" height="403.483" fill="none"/>
    </clipPath>
  </defs>
  <g id="_31" data-name="31" transform="translate(-2645 -4702)" clip-path="url(#clip-path)">
    <g id="Grupo_1145477" data-name="Grupo 1145477" transform="translate(-5272.184 1036.156)">
      <path id="Trazado_979578" data-name="Trazado 979578" d="M770.987,1884h0Z" transform="translate(7821.055 2080.83)" fill="#dae0e6"/>
      <g id="Grupo_1145472" data-name="Grupo 1145472" transform="translate(7701 3290.242)">
        <g id="Grupo_1145471" data-name="Grupo 1145471" transform="translate(0 0)" clip-path="url(#clip-path-2)">
          <path id="Trazado_979377" data-name="Trazado 979377" d="M1655.205,2253.37a139.3,139.3,0,0,0-37.2,5.029,167.076,167.076,0,0,0-131.366-63.169c-79.241,0-145.519,54.41-162.188,127.235a33.442,33.442,0,0,0-6.75-.687c-18.084,0-32.745,14.388-32.745,32.136a31.692,31.692,0,0,0,.658,6.438c-30.538,7.7-54.31,31.951-60.817,62.428a80.742,80.742,0,0,0,10,58.833h517.659a133.385,133.385,0,0,0,34.572-58.833,131.856,131.856,0,0,0,4.8-35.334c0-74.05-61.164-134.078-136.615-134.078" transform="translate(-1002.648 -1807.027)" fill="#cee2ef"/>
          <path id="Trazado_979378" data-name="Trazado 979378" d="M2892.877,3406.64a34.692,34.692,0,0,1,33.435,24.738h-66.87a34.692,34.692,0,0,1,33.435-24.738" transform="translate(-2344.211 -2804.212)" fill="#e7e3e2"/>
          <path id="Trazado_979379" data-name="Trazado 979379" d="M3157.177,3449.993a23.941,23.941,0,0,1,23.074,17.072H3134.1a23.94,23.94,0,0,1,23.073-17.072" transform="translate(-2569.383 -2839.898)" fill="#e7e3e2"/>
          <path id="Trazado_979380" data-name="Trazado 979380" d="M2589.761,3422.512c-4.491-15.251-22.287-26.643-43.56-26.643s-39.069,11.391-43.56,26.643Z" transform="translate(-2051.701 -2795.346)" fill="#e7e3e2"/>
          <path id="Trazado_979381" data-name="Trazado 979381" d="M3798.547,2671.946a8.66,8.66,0,0,1,8.346,6.175H3790.2a8.659,8.659,0,0,1,8.346-6.175" transform="translate(-3107.261 -2199.441)" fill="#bec0c7"/>
          <path id="Trazado_979382" data-name="Trazado 979382" d="M3554.82,2655.427a12.757,12.757,0,0,1,12.294,9.1h-24.588a12.756,12.756,0,0,1,12.294-9.1" transform="translate(-2904.213 -2185.843)" fill="#bec0c7"/>
          <path id="Trazado_979383" data-name="Trazado 979383" d="M3656.115,2654.806c-1.885-6.4-9.356-11.184-18.285-11.184s-16.4,4.782-18.286,11.184Z" transform="translate(-2967.354 -2176.125)" fill="#bec0c7"/>
          <path id="Trazado_979384" data-name="Trazado 979384" d="M3510.008,2691.076a8.484,8.484,0,0,1,8.177,6.05h-16.354a8.484,8.484,0,0,1,8.177-6.05" transform="translate(-2870.851 -2215.188)" fill="#6c7080"/>
          <path id="Trazado_979385" data-name="Trazado 979385" d="M3574.644,2701.678a5.855,5.855,0,0,1,5.643,4.175H3569a5.855,5.855,0,0,1,5.643-4.175" transform="translate(-2925.918 -2223.914)" fill="#6c7080"/>
          <path id="Trazado_979386" data-name="Trazado 979386" d="M3435.878,2694.958c-1.1-3.729-5.45-6.516-10.653-6.516s-9.554,2.786-10.653,6.516Z" transform="translate(-2799.315 -2213.019)" fill="#6c7080"/>
          <path id="Trazado_979387" data-name="Trazado 979387" d="M4124.555,3063.821a6,6,0,0,1,5.779,4.276h-11.558a6,6,0,0,1,5.779-4.276" transform="translate(-3376.631 -2522.016)" fill="#fff"/>
          <path id="Trazado_979388" data-name="Trazado 979388" d="M4170.238,3071.315a4.138,4.138,0,0,1,3.988,2.951h-7.976a4.138,4.138,0,0,1,3.988-2.951" transform="translate(-3415.551 -2528.185)" fill="#fff"/>
          <path id="Trazado_979389" data-name="Trazado 979389" d="M4072.163,3066.565c-.776-2.636-3.853-4.6-7.529-4.6s-6.753,1.969-7.53,4.6Z" transform="translate(-3326.072 -2520.485)" fill="#fff"/>
          <path id="Trazado_979390" data-name="Trazado 979390" d="M1969.023,2856.961a15.864,15.864,0,0,1,15.289,11.312h-30.577a15.864,15.864,0,0,1,15.289-11.312" transform="translate(-1601.699 -2351.737)" fill="#fff"/>
          <path id="Trazado_979391" data-name="Trazado 979391" d="M1522.537,2826.7a23.368,23.368,0,0,1,22.522,16.664h-45.043a23.368,23.368,0,0,1,22.522-16.664" transform="translate(-1229.734 -2326.827)" fill="#fff"/>
          <path id="Trazado_979392" data-name="Trazado 979392" d="M1708.1,2825.561c-3.453-11.728-17.139-20.488-33.5-20.488s-30.044,8.76-33.5,20.488Z" transform="translate(-1345.4 -2309.025)" fill="#fff"/>
          <path id="Trazado_979393" data-name="Trazado 979393" d="M2219.341,3543.459H1917.315a9.92,9.92,0,1,1,0-19.837h302.026a9.92,9.92,0,1,1,0,19.837" transform="translate(-1563.557 -2900.507)" fill="#d7d8dd"/>
          <path id="Trazado_979394" data-name="Trazado 979394" d="M2311.91,2394.119a19.008,19.008,0,0,1,18.319,13.554h-36.638a19.008,19.008,0,0,1,18.319-13.554" transform="translate(-1880.319 -1970.744)" fill="#fff"/>
          <path id="Trazado_979395" data-name="Trazado 979395" d="M1776.926,2357.858a28,28,0,0,1,26.986,19.966H1749.94a28,28,0,0,1,26.986-19.966" transform="translate(-1434.626 -1940.895)" fill="#fff"/>
          <path id="Trazado_979396" data-name="Trazado 979396" d="M1999.268,2356.494c-4.138-14.053-20.536-24.549-40.137-24.549s-36,10.5-40.137,24.549Z" transform="translate(-1573.219 -1919.565)" fill="#fff"/>
          <path id="Trazado_979397" data-name="Trazado 979397" d="M2042.053,2895.75a11.05,11.05,0,0,1,10.65,7.88h-21.3a11.05,11.05,0,0,1,10.65-7.88" transform="translate(-1665.373 -2383.667)" fill="#c7d9e0"/>
          <path id="Trazado_979398" data-name="Trazado 979398" d="M2126.241,2909.56a7.625,7.625,0,0,1,7.349,5.438h-14.7a7.625,7.625,0,0,1,7.35-5.438" transform="translate(-1737.097 -2395.035)" fill="#c7d9e0"/>
          <path id="Trazado_979399" data-name="Trazado 979399" d="M1945.5,2900.807c-1.43-4.858-7.1-8.486-13.875-8.486s-12.445,3.629-13.875,8.486Z" transform="translate(-1572.201 -2380.844)" fill="#c7d9e0"/>
          <path id="Trazado_979400" data-name="Trazado 979400" d="M1964.262,2435.066a17.341,17.341,0,0,0-16.713,12.365h33.426a17.341,17.341,0,0,0-16.713-12.365" transform="translate(-1596.628 -2004.45)" fill="#fdc3c6"/>
          <path id="Trazado_979401" data-name="Trazado 979401" d="M1879.281,2456.736a11.967,11.967,0,0,0-11.533,8.533h23.067a11.967,11.967,0,0,0-11.533-8.533" transform="translate(-1531.206 -2022.288)" fill="#fdc3c6"/>
          <path id="Trazado_979402" data-name="Trazado 979402" d="M2069.721,2443c2.245-7.623,11.141-13.317,21.774-13.317s19.529,5.694,21.774,13.317Z" transform="translate(-1696.787 -2000.019)" fill="#fdc3c6"/>
          <path id="Trazado_979403" data-name="Trazado 979403" d="M3615.466,2969.51a40.3,40.3,0,0,1,12.061,5.168c.031-.163.062-.325.093-.488.8-4.18,1.83-8.88,3.127-13.926a40.477,40.477,0,0,1-12.817-4.018,39.179,39.179,0,0,1-11.285-9.012,37.9,37.9,0,0,1,24.329,12.156c1.092-4.181,2.372-8.591,3.868-13.141a40.057,40.057,0,0,1-11.259-7.067,38.627,38.627,0,0,1-8.562-11.545,37.4,37.4,0,0,1,20.177,17.529c1.519-4.535,3.255-9.2,5.235-13.9a39.742,39.742,0,0,1-10.04-8.676,38.341,38.341,0,0,1-6.667-12.691,37.088,37.088,0,0,1,17.183,20.248c1.356-3.164,2.822-6.342,4.41-9.509a38.936,38.936,0,0,1-5.934-11.73,37.938,37.938,0,0,1-1.285-14.223,36.381,36.381,0,0,1,8.145,24.138q1.71-3.309,3.6-6.583a38.433,38.433,0,0,1,3.985-10.881,38.865,38.865,0,0,1,9.346-10.943,38.1,38.1,0,0,1-4.424,13.6,38.99,38.99,0,0,1-7.174,9.063q-1.962,3.382-3.721,6.811a38.271,38.271,0,0,1,26.7-2.357,39.858,39.858,0,0,1-13.861,4.338,40.65,40.65,0,0,1-13.418-.858c-1.6,3.176-3.084,6.365-4.452,9.541a40.667,40.667,0,0,1,13.239.025,39.771,39.771,0,0,1,13.549,5.2,38.279,38.279,0,0,1-27.143-4.4c-2.051,4.825-3.84,9.612-5.4,14.264a40.634,40.634,0,0,1,13.121-1.1,39.889,39.889,0,0,1,13.963,4.009,40.053,40.053,0,0,1-14.47,1.483,40.514,40.514,0,0,1-12.911-3.493c-1.518,4.593-2.813,9.045-3.917,13.263a40.629,40.629,0,0,1,13-1.548,39.937,39.937,0,0,1,14.1,3.512,40.041,40.041,0,0,1-14.406,1.995,40.547,40.547,0,0,1-12.948-3c-1.279,4.979-2.291,9.615-3.085,13.742q-.06.309-.118.616a40.5,40.5,0,0,1,14.151-.14,39.774,39.774,0,0,1,13.549,5.2,38.29,38.29,0,0,1-27.756-4.767,202.3,202.3,0,0,0-3.519,29.031l-1.931-.045a203.358,203.358,0,0,1,3.444-28.757,40.669,40.669,0,0,1-13.193-.772,39.672,39.672,0,0,1-13.222-5.957,40.087,40.087,0,0,1,14.536.594" transform="translate(-2952.094 -2379.271)" fill="#c7d9e0"/>
          <path id="Trazado_979404" data-name="Trazado 979404" d="M3877.023,3262.5a22.109,22.109,0,0,1,5.581,4.656l.13-.245c1.113-2.1,2.428-4.443,3.946-6.927a22.248,22.248,0,0,1-6.172-4.163,21.452,21.452,0,0,1-4.538-6.582,20.788,20.788,0,0,1,10.974,10.313c1.266-2.055,2.671-4.2,4.213-6.392a21.967,21.967,0,0,1-4.843-5.541,21.217,21.217,0,0,1-2.672-7.5,20.494,20.494,0,0,1,7.882,12.522c1.552-2.177,3.24-4.389,5.066-6.584a21.746,21.746,0,0,1-3.93-6.206,21.138,21.138,0,0,1-1.475-7.814,20.36,20.36,0,0,1,5.841,13.5c1.24-1.472,2.542-2.935,3.907-4.371a21.452,21.452,0,0,1-1.241-7.187,21.168,21.168,0,0,1,1.644-7.781,20.148,20.148,0,0,1,.388,14.147q1.453-1.493,3-2.94a21.684,21.684,0,0,1,3.9-5.169,21.981,21.981,0,0,1,6.772-4.357,21.459,21.459,0,0,1-4.584,6.551,22.068,22.068,0,0,1-5.307,3.7q-1.6,1.492-3.1,3.042a22.6,22.6,0,0,1,7.074.059,22.137,22.137,0,0,1,7.541,2.9,21.306,21.306,0,0,1-15.105-2.448c-1.375,1.439-2.685,2.906-3.934,4.382a22.533,22.533,0,0,1,7.05,2.1,21.819,21.819,0,0,1,6.367,4.909,21.117,21.117,0,0,1-13.742-6.626c-1.883,2.248-3.62,4.516-5.213,6.749a22.587,22.587,0,0,1,7.172,1.481,21.926,21.926,0,0,1,6.784,4.338,21.184,21.184,0,0,1-14.261-5.388c-1.561,2.208-2.98,4.377-4.258,6.45a22.6,22.6,0,0,1,7.182,1.226,21.967,21.967,0,0,1,6.939,4.1,21.209,21.209,0,0,1-14.411-4.848c-1.5,2.451-2.795,4.762-3.894,6.836l-.164.31a22.457,22.457,0,0,1,7.563,2.157,21.819,21.819,0,0,1,6.367,4.909,21.115,21.115,0,0,1-14.009-6.917,113.564,113.564,0,0,0-6.628,14.915l-1.022-.329a114.088,114.088,0,0,1,6.543-14.781,22.488,22.488,0,0,1-6.9-2.492,21.756,21.756,0,0,1-6.071-5.259,22.206,22.206,0,0,1,7.649,2.609" transform="translate(-3172.168 -2655.675)" fill="#c7d9e0"/>
          <path id="Trazado_979405" data-name="Trazado 979405" d="M3665.093,3469.545a21.907,21.907,0,0,1,21.114,15.622h-42.228a21.908,21.908,0,0,1,21.114-15.622" transform="translate(-2987.386 -2855.993)" fill="#c7d9e0"/>
          <path id="Trazado_979406" data-name="Trazado 979406" d="M3832,3496.921a15.118,15.118,0,0,1,14.571,10.781h-29.141A15.118,15.118,0,0,1,3832,3496.921" transform="translate(-3129.579 -2878.528)" fill="#c7d9e0"/>
          <path id="Trazado_979407" data-name="Trazado 979407" d="M3473.679,3479.568c-2.836-9.631-14.074-16.824-27.508-16.824s-24.672,7.194-27.508,16.824Z" transform="translate(-2802.669 -2850.395)" fill="#c7d9e0"/>
          <path id="Trazado_979408" data-name="Trazado 979408" d="M1809.571,3396.572a32.047,32.047,0,0,0-30.886,22.853h61.773a32.047,32.047,0,0,0-30.886-22.853" transform="translate(-1458.191 -2795.924)" fill="#cdc7c4"/>
          <path id="Trazado_979409" data-name="Trazado 979409" d="M1652.52,3436.62a22.116,22.116,0,0,0-21.315,15.77h42.629a22.116,22.116,0,0,0-21.314-15.77" transform="translate(-1337.285 -2828.89)" fill="#cdc7c4"/>
          <path id="Trazado_979410" data-name="Trazado 979410" d="M2004.468,3411.235c4.149-14.089,20.589-24.612,40.24-24.612s36.091,10.523,40.24,24.612Z" transform="translate(-1643.291 -2787.735)" fill="#cdc7c4"/>
          <path id="Trazado_979411" data-name="Trazado 979411" d="M1937.29,3138.229c-1.421,4.394-5.809,6.947-5.809,6.947s-2.084-4.57-.663-8.964,5.809-6.947,5.809-6.947,2.084,4.57.663,8.963" transform="translate(-1582.505 -2575.888)" fill="#9a898b"/>
          <path id="Trazado_979412" data-name="Trazado 979412" d="M1999.435,3237.186c-2.144,4.1-6.9,5.906-6.9,5.906s-1.283-4.846.86-8.947,6.9-5.906,6.9-5.906,1.283,4.846-.86,8.947" transform="translate(-1633.194 -2657.359)" fill="#9a898b"/>
          <path id="Trazado_979413" data-name="Trazado 979413" d="M1819.577,3104.6c3.553,3.014,4.213,7.979,4.213,7.979s-5.1.077-8.654-2.937-4.213-7.98-4.213-7.98,5.1-.077,8.654,2.938" transform="translate(-1484.621 -2553.167)" fill="#9a898b"/>
          <path id="Trazado_979414" data-name="Trazado 979414" d="M1852.053,3205.324c4.681-.38,8.755,2.633,8.755,2.633s-3.515,3.629-8.2,4.009-8.755-2.632-8.755-2.632,3.514-3.629,8.2-4.01" transform="translate(-1511.621 -2638.469)" fill="#9a898b"/>
          <path id="Trazado_979415" data-name="Trazado 979415" d="M1908.113,3296.616c4.681-.38,8.755,2.632,8.755,2.632s-3.515,3.63-8.2,4.01-8.755-2.632-8.755-2.632,3.514-3.63,8.2-4.01" transform="translate(-1557.58 -2713.617)" fill="#9a898b"/>
          <path id="Trazado_979416" data-name="Trazado 979416" d="M1901.093,3212.739l-.948.127a125.355,125.355,0,0,0-6.562-24.155,107.465,107.465,0,0,0-10.51-20.943,70.934,70.934,0,0,0-17.349-18.64l.569-.754a71.855,71.855,0,0,1,17.591,18.9,108.438,108.438,0,0,1,10.6,21.135,126.335,126.335,0,0,1,6.605,24.334" transform="translate(-1529.547 -2591.617)" fill="#9a898b"/>
          <path id="Trazado_979417" data-name="Trazado 979417" d="M1824.622,3308.435a3.169,3.169,0,1,1-2.192-5.446,9.141,9.141,0,0,1,2.192,5.446" transform="translate(-1492.224 -2718.891)" fill="#9a898b"/>
          <path id="Trazado_979418" data-name="Trazado 979418" d="M1883.269,3356.213a9.211,9.211,0,0,1-3.119,4.991,9.088,9.088,0,0,1-1.241-5.727,9.213,9.213,0,0,1,3.119-4.992,9.089,9.089,0,0,1,1.241,5.727" transform="translate(-1540.278 -2757.988)" fill="#9a898b"/>
          <path id="Trazado_979419" data-name="Trazado 979419" d="M1737.187,3314.183a9.288,9.288,0,0,1,4.2,4.155,9.563,9.563,0,0,1-5.963-.172,9.288,9.288,0,0,1-4.2-4.156,9.565,9.565,0,0,1,5.964.172" transform="translate(-1419.282 -2727.628)" fill="#9a898b"/>
          <path id="Trazado_979420" data-name="Trazado 979420" d="M1780.642,3362.787a9.562,9.562,0,0,1,5.966-.038,9.3,9.3,0,0,1-4.3,4.06,9.563,9.563,0,0,1-5.966.038,9.3,9.3,0,0,1,4.3-4.06" transform="translate(-1456.271 -2767.692)" fill="#9a898b"/>
          <path id="Trazado_979421" data-name="Trazado 979421" d="M1833.282,3408.621a9.564,9.564,0,0,1,5.966-.038,9.3,9.3,0,0,1-4.3,4.06,9.559,9.559,0,0,1-5.966.038,9.3,9.3,0,0,1,4.3-4.06" transform="translate(-1499.426 -2805.421)" fill="#9a898b"/>
          <path id="Trazado_979422" data-name="Trazado 979422" d="M1809.842,3367.018l-.564.26a82.672,82.672,0,0,0-8.875-13.762,71.126,71.126,0,0,0-10.691-11.011,46.967,46.967,0,0,0-14.487-8.271l.2-.578a47.58,47.58,0,0,1,14.688,8.384,71.753,71.753,0,0,1,10.788,11.112,83.317,83.317,0,0,1,8.938,13.865" transform="translate(-1455.355 -2744.135)" fill="#9a898b"/>
          <path id="Trazado_979423" data-name="Trazado 979423" d="M4007.971,3561.179a9.038,9.038,0,0,1,8.71,6.444h-17.419a9.037,9.037,0,0,1,8.709-6.444" transform="translate(-3278.652 -2931.422)" fill="#90b4c1"/>
          <path id="Trazado_979424" data-name="Trazado 979424" d="M3753.617,3543.939a13.312,13.312,0,0,1,12.83,9.493h-25.66a13.313,13.313,0,0,1,12.83-9.493" transform="translate(-3066.75 -2917.231)" fill="#90b4c1"/>
          <path id="Trazado_979425" data-name="Trazado 979425" d="M3859.329,3543.29c-1.968-6.681-9.764-11.672-19.083-11.672s-17.115,4.991-19.083,11.672Z" transform="translate(-3132.644 -2907.089)" fill="#90b4c1"/>
          <path id="Trazado_979426" data-name="Trazado 979426" d="M1891.96,3484.88a14.037,14.037,0,0,0-13.529,10.01h27.058a14.038,14.038,0,0,0-13.529-10.01" transform="translate(-1539.964 -2868.616)" fill="#9a898b"/>
          <path id="Trazado_979427" data-name="Trazado 979427" d="M1823.168,3502.422a9.687,9.687,0,0,0-9.336,6.908H1832.5a9.687,9.687,0,0,0-9.336-6.908" transform="translate(-1487.005 -2883.056)" fill="#9a898b"/>
          <path id="Trazado_979428" data-name="Trazado 979428" d="M1977.328,3491.3c1.817-6.171,9.018-10.781,17.626-10.781s15.809,4.609,17.626,10.781Z" transform="translate(-1621.042 -2865.029)" fill="#9a898b"/>
          <path id="Trazado_979429" data-name="Trazado 979429" d="M2152.108,3427.515a1.077,1.077,0,0,1,1.409.537,1.028,1.028,0,0,1,.046.723,30.482,30.482,0,0,1,2.757,2.458,16.049,16.049,0,0,1-.558-3.854,1.059,1.059,0,0,1-.643-.572,1.041,1.041,0,0,1,.547-1.383,1.077,1.077,0,0,1,1.409.536,1.051,1.051,0,0,1-.736,1.445,16.982,16.982,0,0,0,.848,4.728,43.447,43.447,0,0,1,4.359,5.577,42.9,42.9,0,0,1,2.958,5.167l-.526.232a42.37,42.37,0,0,0-2.916-5.091c-.567-.857-1.252-1.831-2.046-2.849a11.575,11.575,0,0,0-3.979.233,1.048,1.048,0,0,1-.635,1.022,1.077,1.077,0,0,1-1.409-.537,1.042,1.042,0,0,1,.547-1.383,1.081,1.081,0,0,1,1.308.36,12.713,12.713,0,0,1,3.677-.315,33.943,33.943,0,0,0-5.272-5.292,1.079,1.079,0,0,1-1.691-.358,1.042,1.042,0,0,1,.547-1.383" transform="translate(-1763.806 -2819.6)" fill="#fcaaae"/>
          <path id="Trazado_979430" data-name="Trazado 979430" d="M2203.419,3426.1a11.513,11.513,0,0,0-3.808-1.157,1.049,1.049,0,1,1,.015-.569,12.642,12.642,0,0,1,3.555.976,33.378,33.378,0,0,0-3.035-6.776,1.081,1.081,0,0,1-.328.07,1.049,1.049,0,1,1,1.008-1.106,1.031,1.031,0,0,1-.217.692,29.9,29.9,0,0,1,1.7,3.254,16.092,16.092,0,0,1,.862-3.8,1.04,1.04,0,0,1-.4-.757,1.069,1.069,0,1,1,1.127.989,1.107,1.107,0,0,1-.2-.008,16.99,16.99,0,0,0-.9,4.719,44.774,44.774,0,0,1,2.993,12.584l-.575.035a41.687,41.687,0,0,0-.9-5.772c-.223-1-.515-2.147-.892-3.374" transform="translate(-1801.56 -2811.766)" fill="#fcaaae"/>
          <path id="Trazado_979431" data-name="Trazado 979431" d="M2310.879,3529.994a6.017,6.017,0,0,1,5.8,4.29h-11.6a6.016,6.016,0,0,1,5.8-4.29" transform="translate(-1889.738 -2905.752)" fill="#fcaaae"/>
          <path id="Trazado_979432" data-name="Trazado 979432" d="M2141.539,3518.516a8.863,8.863,0,0,1,8.542,6.32H2133a8.863,8.863,0,0,1,8.542-6.32" transform="translate(-1748.661 -2896.304)" fill="#fcaaae"/>
          <path id="Trazado_979433" data-name="Trazado 979433" d="M2211.917,3518.084c-1.31-4.448-6.5-7.771-12.705-7.771s-11.395,3.322-12.7,7.771Z" transform="translate(-1792.531 -2889.552)" fill="#fcaaae"/>
          <path id="Trazado_979434" data-name="Trazado 979434" d="M2771.174,3511.65a5.422,5.422,0,0,1,5.225,3.866H2765.95a5.421,5.421,0,0,1,5.225-3.866" transform="translate(-2267.565 -2890.652)" fill="#735b5e"/>
          <path id="Trazado_979435" data-name="Trazado 979435" d="M2618.594,3501.309a7.986,7.986,0,0,1,7.7,5.695H2610.9a7.986,7.986,0,0,1,7.7-5.695" transform="translate(-2140.45 -2882.14)" fill="#735b5e"/>
          <path id="Trazado_979436" data-name="Trazado 979436" d="M2682.007,3500.919c-1.18-4.008-5.857-7-11.447-7s-10.267,2.993-11.447,7Z" transform="translate(-2179.979 -2876.056)" fill="#735b5e"/>
          <path id="Trazado_979437" data-name="Trazado 979437" d="M3271.718,2318.517a5.968,5.968,0,0,1,5.752,4.256h-11.506a5.969,5.969,0,0,1,5.753-4.256" transform="translate(-2677.484 -1908.512)" fill="#fb9ea3"/>
          <path id="Trazado_979438" data-name="Trazado 979438" d="M3103.717,2307.13a8.792,8.792,0,0,1,8.474,6.27h-16.948a8.792,8.792,0,0,1,8.474-6.27" transform="translate(-2537.524 -1899.138)" fill="#fb9ea3"/>
          <path id="Trazado_979439" data-name="Trazado 979439" d="M3173.539,2306.7c-1.3-4.413-6.449-7.709-12.6-7.709s-11.3,3.3-12.6,7.709Z" transform="translate(-2581.046 -1892.439)" fill="#fb9ea3"/>
          <path id="Trazado_979440" data-name="Trazado 979440" d="M3066.883,2576.808a6,6,0,0,1,5.779,4.276H3061.1a6,6,0,0,1,5.779-4.276" transform="translate(-2509.537 -2121.127)" fill="#fff"/>
          <path id="Trazado_979441" data-name="Trazado 979441" d="M3112.566,2584.3a4.138,4.138,0,0,1,3.988,2.951h-7.976a4.138,4.138,0,0,1,3.988-2.951" transform="translate(-2548.456 -2127.294)" fill="#fff"/>
          <path id="Trazado_979442" data-name="Trazado 979442" d="M3014.491,2579.551c-.776-2.636-3.852-4.6-7.53-4.6s-6.753,1.969-7.529,4.6Z" transform="translate(-2458.978 -2119.594)" fill="#fff"/>
        </g>
      </g>
      <g id="Grupo_1145474" data-name="Grupo 1145474" transform="translate(7821.054 3596.361)">
        <g id="Grupo_1145473" data-name="Grupo 1145473" transform="translate(0)" clip-path="url(#clip-path-3)">
          <path id="Trazado_979443" data-name="Trazado 979443" d="M3165.98,3000l-20.426,29.547a4.71,4.71,0,0,0,7.749,5.357l20.426-29.547a4.71,4.71,0,1,0-7.749-5.357" transform="translate(-2685.697 -2769.401)" fill="#f5ccb5"/>
          <path id="Trazado_979444" data-name="Trazado 979444" d="M3254.818,2905.2l-10.489,20.071a4.426,4.426,0,0,0,1.873,5.972h0a4.426,4.426,0,0,0,5.972-1.873l10.489-20.071a4.426,4.426,0,0,0-1.873-5.972h0a4.426,4.426,0,0,0-5.972,1.873" transform="translate(-2763.579 -2694.631)" fill="#f5ccb5"/>
          <path id="Trazado_979445" data-name="Trazado 979445" d="M3298.973,2845.594l-2.934,9.994c-.765,3.17.642,6.243,3.071,6.707,2.323.444,4.682-1.683,5.269-4.75l2.446-12.8c.378-1.981-.58-3.8-2.1-3.977-2.428-.288-4.848,1.742-5.753,4.825" transform="translate(-2804.447 -2645.843)" fill="#f5ccb5"/>
          <path id="Trazado_979446" data-name="Trazado 979446" d="M3227.375,2816.314l-2.332,9.828c-.567,3.1,1.116,5.951,3.672,6.212h0c2.447.25,4.746-1.973,5.135-4.966l1.623-12.486c.251-1.933-.875-3.6-2.465-3.662-2.544-.092-4.914,2.043-5.633,5.075" transform="translate(-2748.733 -2622.656)" fill="#f5ccb5"/>
          <path id="Trazado_979447" data-name="Trazado 979447" d="M3138.01,2954.049l-15.314,26.228a4.6,4.6,0,0,0,1.369,6.445,4.864,4.864,0,0,0,6.389-2.153l15.314-26.228a4.6,4.6,0,0,0-1.369-6.445,4.864,4.864,0,0,0-6.389,2.153" transform="translate(-2667.808 -2732.793)" fill="#f5ccb5"/>
          <path id="Trazado_979448" data-name="Trazado 979448" d="M3200.45,2873.573l-5.722,17.326a4.529,4.529,0,0,0,2.807,5.889,4.846,4.846,0,0,0,5.841-3.3l5.722-17.326a4.529,4.529,0,0,0-2.807-5.889,4.846,4.846,0,0,0-5.842,3.3" transform="translate(-2724.792 -2668.908)" fill="#f5ccb5"/>
          <path id="Trazado_979449" data-name="Trazado 979449" d="M3121.539,2840.169l1.9,9.395c.743,2.9,3.273,4.672,5.521,3.869,2.152-.769,3.208-3.606,2.359-6.337l-3.541-11.4c-.548-1.764-2.149-2.75-3.508-2.16-2.171.944-3.322,3.734-2.735,6.631" transform="translate(-2667.362 -2640.047)" fill="#f5ccb5"/>
          <path id="Trazado_979450" data-name="Trazado 979450" d="M3078.965,2965.123l-9.839,23.6c-1.157,2.774-.3,5.758,1.916,6.664s4.949-.607,6.105-3.381l9.839-23.6c1.157-2.774.3-5.757-1.917-6.664s-4.949.607-6.105,3.382" transform="translate(-2625.889 -2740.722)" fill="#f5ccb5"/>
          <path id="Trazado_979451" data-name="Trazado 979451" d="M3122.27,2893.83l-2.078,12.58c-.489,2.959.976,5.625,3.271,5.956s4.553-1.8,5.042-4.759l2.078-12.581c.489-2.958-.976-5.625-3.271-5.955s-4.553,1.8-5.041,4.759" transform="translate(-2666.35 -2683.795)" fill="#f5ccb5"/>
          <path id="Trazado_979452" data-name="Trazado 979452" d="M3019.809,2918.688l1.827,8.356c.714,2.578,3.148,4.144,5.313,3.417,2.071-.7,3.089-3.228,2.273-5.656l-3.4-10.131a2.67,2.67,0,0,0-3.375-1.905,5.052,5.052,0,0,0-2.634,5.92" transform="translate(-2587.424 -2702.321)" fill="#f5ccb5"/>
          <path id="Trazado_979453" data-name="Trazado 979453" d="M3015.445,3021.109l-5.145,23.2a4.156,4.156,0,1,0,8.115,1.8l5.146-23.2a4.156,4.156,0,0,0-8.115-1.8" transform="translate(-2579.988 -2785.022)" fill="#f5ccb5"/>
          <path id="Trazado_979454" data-name="Trazado 979454" d="M3027.468,2959.523l1.21,12.522a4.122,4.122,0,0,0,4.5,3.707h0a4.123,4.123,0,0,0,3.707-4.5l-1.21-12.523a4.122,4.122,0,1,0-8.207.793" transform="translate(-2593.542 -2735.635)" fill="#f5ccb5"/>
          <path id="Trazado_979455" data-name="Trazado 979455" d="M3106.209,3129.184c-5.472-5.389-9.05-10.9-7.213-22.5,1.468-9.263,4.7-15.386,9.516-19.051,4.971-3.782,11.794-5.374,16.865-1.728,1.3.931,2.631,1.546,3.659,1.233l.046-.015c5.391-1.682,3.325-4.976,15.654-9.976s16.152,2.365,16.7,4.369-5.848,2.862-8.731,3.784-8.195,7.723-11.729,10.213-13.835,13.7-13.835,13.7c-1.71,1.822-4.951,4.811-7.949,7.505-3.056,3.675-6.188,7.117-8.771,9.805a10.349,10.349,0,0,1-4.207,2.66" transform="translate(-2649.384 -2830.278)" fill="#f5ccb5"/>
          <path id="Trazado_979456" data-name="Trazado 979456" d="M3032.056,3320.122l-29.847,3.066-.437-71.569,31.853,2.92Z" transform="translate(-2573.365 -2968.725)" fill="#f5ccb5"/>
          <path id="Trazado_979457" data-name="Trazado 979457" d="M3027.375,3093.421c-1.824,13.235-13.364,36.555-14.157,36.921l-24.579-3.37a13.282,13.282,0,0,1-10.6-8.369,21.34,21.34,0,0,1-1.457-7.091c-.187-6.356,3.152-16.387,6.029-22.062l3.432-11.216,13.665-4.049,14.208-1.042,10.192,6.074a6.987,6.987,0,0,1,4.718,8.5Z" transform="translate(-2553.567 -2828.474)" fill="#f5ccb5"/>
          <path id="Trazado_979458" data-name="Trazado 979458" d="M2996.588,3483.114l-34.6-1.839-7.736,145.554,47.022,4.35Z" transform="translate(-2536.024 -3149.198)" fill="#fff"/>
          <path id="Trazado_979459" data-name="Trazado 979459" d="M2998.569,3564.115l-38.7-.82-5.615,127.989,51.123,3.332Z" transform="translate(-2536.024 -3213.652)" fill="#2d334a"/>
          <path id="Trazado_979460" data-name="Trazado 979460" d="M2297.408,3000l20.426,29.547a4.71,4.71,0,0,1-7.75,5.357l-20.426-29.547a4.71,4.71,0,1,1,7.749-5.357" transform="translate(-2013.103 -2769.401)" fill="#f5ccb5"/>
          <path id="Trazado_979461" data-name="Trazado 979461" d="M2247.12,2905.2l10.488,20.071a4.426,4.426,0,1,1-7.845,4.1l-10.489-20.071a4.426,4.426,0,1,1,7.845-4.1" transform="translate(-1973.77 -2694.631)" fill="#f5ccb5"/>
          <path id="Trazado_979462" data-name="Trazado 979462" d="M2233.294,2845.594l2.934,9.994c.765,3.17-.642,6.243-3.07,6.707-2.324.444-4.683-1.683-5.269-4.75l-2.446-12.8c-.378-1.981.58-3.8,2.1-3.977,2.427-.288,4.849,1.742,5.753,4.825" transform="translate(-1963.231 -2645.843)" fill="#f5ccb5"/>
          <path id="Trazado_979463" data-name="Trazado 979463" d="M2327.5,2802.031l.547,10.086c.006,3.156-2.156,5.657-4.719,5.46-2.452-.189-4.319-2.786-4.169-5.8l.623-12.576c.1-1.946,1.5-3.391,3.078-3.165,2.519.362,4.472,2.885,4.64,6" transform="translate(-2036.938 -2610.692)" fill="#f5ccb5"/>
          <path id="Trazado_979464" data-name="Trazado 979464" d="M2344.794,2954.049l15.314,26.228a4.6,4.6,0,0,1-1.369,6.445,4.864,4.864,0,0,1-6.389-2.153l-15.314-26.228a4.6,4.6,0,0,1,1.369-6.445,4.864,4.864,0,0,1,6.39,2.153" transform="translate(-2050.407 -2732.793)" fill="#f5ccb5"/>
          <path id="Trazado_979465" data-name="Trazado 979465" d="M2329.608,2861.346l2.55,18.068a4.528,4.528,0,0,1-3.81,5.3,4.845,4.845,0,0,1-5.162-4.285l-2.55-18.068a4.528,4.528,0,0,1,3.81-5.3,4.845,4.845,0,0,1,5.162,4.285" transform="translate(-2038.063 -2658.646)" fill="#f5ccb5"/>
          <path id="Trazado_979466" data-name="Trazado 979466" d="M2413.838,2840.169l-1.9,9.395c-.743,2.9-3.273,4.672-5.522,3.869-2.152-.769-3.208-3.606-2.359-6.337l3.541-11.4c.548-1.764,2.15-2.75,3.508-2.16,2.171.944,3.322,3.734,2.735,6.631" transform="translate(-2103.426 -2640.047)" fill="#f5ccb5"/>
          <path id="Trazado_979467" data-name="Trazado 979467" d="M2424.63,2965.123l9.839,23.6c1.156,2.774.3,5.758-1.917,6.664s-4.948-.607-6.106-3.381l-9.839-23.6c-1.157-2.774-.3-5.757,1.917-6.664s4.948.607,6.105,3.382" transform="translate(-2113.116 -2740.722)" fill="#f5ccb5"/>
          <path id="Trazado_979468" data-name="Trazado 979468" d="M2411.823,2893.83l2.078,12.58c.489,2.959-.976,5.625-3.272,5.956s-4.552-1.8-5.042-4.759l-2.078-12.581c-.489-2.958.976-5.625,3.272-5.955s4.552,1.8,5.042,4.759" transform="translate(-2103.155 -2683.795)" fill="#f5ccb5"/>
          <path id="Trazado_979469" data-name="Trazado 979469" d="M2516.993,2918.688l-1.827,8.356c-.714,2.578-3.149,4.144-5.313,3.417-2.071-.7-3.088-3.228-2.273-5.656l3.4-10.131a2.67,2.67,0,0,1,3.375-1.905,5.052,5.052,0,0,1,2.634,5.92" transform="translate(-2184.789 -2702.321)" fill="#f5ccb5"/>
          <path id="Trazado_979470" data-name="Trazado 979470" d="M2508.079,3021.109l5.146,23.2a4.156,4.156,0,1,1-8.115,1.8l-5.146-23.2a4.156,4.156,0,0,1,8.115-1.8" transform="translate(-2178.948 -2785.022)" fill="#f5ccb5"/>
          <path id="Trazado_979471" data-name="Trazado 979471" d="M2510.75,2959.523l-1.209,12.522a4.122,4.122,0,1,1-8.207-.792l1.209-12.523a4.122,4.122,0,1,1,8.207.793" transform="translate(-2180.087 -2735.635)" fill="#f5ccb5"/>
          <path id="Trazado_979472" data-name="Trazado 979472" d="M2235.7,3129.184c5.472-5.389,9.05-10.9,7.213-22.5-1.468-9.263-4.7-15.386-9.516-19.051-4.971-3.782-11.794-5.374-16.865-1.728-1.3.931-2.631,1.546-3.659,1.233l-.047-.015c-5.39-1.682-3.325-4.976-15.654-9.976s-16.152,2.365-16.7,4.369,5.848,2.862,8.731,3.784,8.2,7.723,11.729,10.213,13.836,13.7,13.836,13.7c1.709,1.822,4.95,4.811,7.949,7.505,3.055,3.675,6.188,7.117,8.771,9.805a10.354,10.354,0,0,0,4.207,2.66" transform="translate(-1927.935 -2830.278)" fill="#f5ccb5"/>
          <path id="Trazado_979473" data-name="Trazado 979473" d="M2423.976,3320.122l29.847,3.066.437-71.569-31.853,2.92Z" transform="translate(-2118.078 -2968.725)" fill="#f5ccb5"/>
          <path id="Trazado_979474" data-name="Trazado 979474" d="M2352.978,3093.421c1.824,13.235,13.364,36.555,14.157,36.921l24.579-3.37a13.281,13.281,0,0,0,10.6-8.369,21.34,21.34,0,0,0,1.457-7.091c.187-6.356-3.152-16.387-6.029-22.062l-3.431-11.216-13.665-4.049-14.208-1.042-10.192,6.074a6.987,6.987,0,0,0-4.718,8.5Z" transform="translate(-2062.198 -2828.474)" fill="#f5ccb5"/>
          <path id="Trazado_979475" data-name="Trazado 979475" d="M2403.782,3483.114l34.6-1.839,7.735,145.554-47.022,4.35Z" transform="translate(-2099.756 -3149.198)" fill="#fff"/>
          <path id="Trazado_979476" data-name="Trazado 979476" d="M2386.755,3564.115l38.7-.82,5.616,127.989-51.123,3.332Z" transform="translate(-2084.71 -3213.652)" fill="#2d334a"/>
        </g>
      </g>
      <g id="Grupo_1145476" data-name="Grupo 1145476" transform="translate(7701 3290.242)">
        <g id="Grupo_1145475" data-name="Grupo 1145475" transform="translate(0 0)" clip-path="url(#clip-path-2)">
          <path id="Trazado_979477" data-name="Trazado 979477" d="M2516.994,2369.4c0,43.423-35.868,78.625-80.113,78.625-43.588,0-79.053-34.168-80.1-76.7-.018-.639-.024-1.278-.024-1.923a77.3,77.3,0,0,1,15.06-45.9,81.078,81.078,0,0,1,123.482-7.9,77.691,77.691,0,0,1,21.329,46.3q.355,3.7.361,7.495" transform="translate(-1932.107 -1885.668)" fill="#94b6c3"/>
          <path id="Trazado_979478" data-name="Trazado 979478" d="M2798.063,2609.41l-2.96,4.26-5.722,4.842s-.823,8.134-1.6,8.715,2.977,4.842,2.977,4.842l2.11,5.229,6.375.774,7.5-1.937,8.288.581,3.354,1.356-3.157,5.81,5.328,7.94-2.96,8.715,2.171,8.134,2.763,7.166s-1.184,3.486,0,3.486h5.92l11.642-8.521v-9.683s6.907-8.134,7.3-8.715,2.763-9.3,2.763-9.3l6.315-7.166-2.96-4.648-4.933-1.355-8.09-11.426-2.763-6.778-7.5-2.324-5.722,3.1-3.157-3.1-3.157-2.905-1.579-2.517-8.88,2.711-5.92-.387Z" transform="translate(-2285.38 -2143.499)" fill="#b0cad3"/>
          <path id="Trazado_979479" data-name="Trazado 979479" d="M2495.806,2777.019l-5.328,7.068,2.664,12.879,5.229,4.067,7.1,5.616,2.763,10.071,8.485,12.007s3.552,8.328,4.539,8.715,5.525,4.26,5.525,4.26l7.893-.775v-2.517s-6.117-6.2-6.512-6.972-.2-8.715,0-9.683,5.13-9.3,5.13-9.3l-1.381-6s4.341-5.81,4.341-6.778a51.678,51.678,0,0,0-.986-5.229l-1.184-7.305-10.064-3.056-7.5.872-3.157-4.648-8.288-.968Z" transform="translate(-2041.729 -2285.932)" fill="#b0cad3"/>
          <path id="Trazado_979480" data-name="Trazado 979480" d="M2889.1,2451.731l-3.351,1.552,5.719,5.42-5.719,5.229h-5.133l-4.144-8.325-5.328-4.648-4.144-3.294,6.708-6L2867,2439.92l-3.356-2.521s-5.127,0-7.3,1.359-5-2.133-5-2.133l-6.648-2.905-3.552.773-4.535,4.456h-5.724l-2.368,2.713-5.133-3.684,4.345-4.259h7.1l1.379-2.132-2.563-.773-.2-2.132,3.357-1.162-3.552-3.1-2.765.773h-3.747v-1.935l5.92-3.486,5.328,5.421h1.971l2.765-2.516,2.764.773,4.931,1.743,4.736-.964s5.724-5.229,5.724-5.81-2.765-1.94-2.765-1.94h-3.357c-.592,0,1.581-4.84,1.581-4.84l-5,2.516s.456,3.486,0,4.264a11.773,11.773,0,0,1-2.7,2.126s-4.541-3.288-5.132-2.707-2.759,0-2.759,0l-1.776-3.294,4.736-1.162,2.368-3.486,8.483-5.229s3.949.581,5.328,1.354a15.27,15.27,0,0,0,4.144,1.162l-2.96,3.1,2.765,3.1h4.931l7.891-3.1,1.184-.93a77.691,77.691,0,0,1,21.329,46.305l-2.385-.837Z" transform="translate(-2314.654 -1979.43)" fill="#b0cad3"/>
          <path id="Trazado_979481" data-name="Trazado 979481" d="M2399.6,2493.419c0,1.162-3.161,5.037-3.161,5.037l-4.931,2.324-5.724,5.421-.982,9.488-1.385,5.037h-4.339l-2.173-3.875-4.144-1.162-3.942,3.683.592,3.87s4.931,3.294,5.127,4.067,1.184,3.1,1.184,3.1l5.132,2.516v2.713l-10.46-5.427-11.047-2.9-2.563-5.433c-.018-.639-.024-1.278-.024-1.923a77.3,77.3,0,0,1,15.06-45.9l.55-.389,4.635,3.677v3.684l-2.664,2.324-4.736,1.545v1.743l5.133-.581,3.942-1.935,4.144-3.1h3.357l-2.764,2.516-4.736,5.037-3.155,4.259,1.48,3.1,2.859-1.354.2,2.132,1.971,2.515L2384.8,2494l1.184-5.229,4.339-2.516,2.563,1.162h4.937s1.776,4.84,1.776,6" transform="translate(-1932.107 -2036.224)" fill="#b0cad3"/>
          <path id="Trazado_979482" data-name="Trazado 979482" d="M2505.081,2351.245h4.144v3.68l2.17,1.549.79,9.1h3.749l2.762-5.422,5.92-6.972,4.341-2.9,7.3-5.229.987-6.778,4.736-5.423-4.341-1.549-3.749,1.355-10.36,4.842-6.018,1.743L2511,2342.53l-10.656,2.905-5.328,3v4.551l-4.539,3.486,5.328.774,3.552-2.9,3.157-3.486Z" transform="translate(-2041.73 -1919.032)" fill="#b0cad3"/>
          <rect id="Rectángulo_405843" data-name="Rectángulo 405843" width="2.639" height="116.892" transform="translate(503.403 410.407)" fill="#2d334a"/>
          <path id="Trazado_979483" data-name="Trazado 979483" d="M2740.735,2970.24h-31.946a.506.506,0,0,1-.511-.5,6.828,6.828,0,0,1,6.892-6.763h19.185a6.828,6.828,0,0,1,6.892,6.763.506.506,0,0,1-.511.5" transform="translate(-2220.285 -2439.005)" fill="#2d334a"/>
          <path id="Trazado_979579" data-name="Trazado 979579" d="M0,0,1.609,0l.168,92.315-1.609,0Z" transform="matrix(0.099, -0.995, 0.995, 0.099, 458.701, 427.717)" fill="#2d334a"/>
          <path id="Trazado_979484" data-name="Trazado 979484" d="M2534.715,2404.52a2.063,2.063,0,1,1,1.85,2.215,2.053,2.053,0,0,1-1.85-2.215" transform="translate(-2077.987 -1977.803)" fill="#2d334a"/>
          <path id="Trazado_979485" data-name="Trazado 979485" d="M3044.644,2455.025a2.063,2.063,0,1,1,1.85,2.215,2.053,2.053,0,0,1-1.85-2.215" transform="translate(-2496.034 -2019.377)" fill="#2d334a"/>
          <path id="Trazado_979486" data-name="Trazado 979486" d="M2503.266,2481.114l-22.934-49.231-22.934,49.231-.541-.243,23.475-50.393,23.475,50.393Z" transform="translate(-2014.167 -2000.674)" fill="#62698c"/>
          <path id="Trazado_979487" data-name="Trazado 979487" d="M2497.2,2706.273a24.957,24.957,0,0,1-5.29,11.3,26.094,26.094,0,0,1-36.225,3.809q-.724-.573-1.4-1.188a25.039,25.039,0,0,1-7.762-13.924Z" transform="translate(-2005.697 -2227.697)" fill="#2d334a"/>
          <path id="Trazado_979488" data-name="Trazado 979488" d="M2487.009,2706.273a25.2,25.2,0,0,1-3.706,6.084,26.082,26.082,0,0,1-29.015,7.84,25.039,25.039,0,0,1-7.762-13.924Z" transform="translate(-2005.697 -2227.697)" fill="#515669"/>
          <path id="Trazado_979489" data-name="Trazado 979489" d="M2583.189,2409.182h-1.406a.317.317,0,0,1-.32-.314v-7.484a.317.317,0,0,1,.32-.313h1.406a.317.317,0,0,1,.319.313v7.484a.317.317,0,0,1-.319.314" transform="translate(-2116.321 -1976.466)" fill="#2d334a"/>
          <path id="Trazado_979490" data-name="Trazado 979490" d="M2931.774,2522.787l-22.934-49.231-22.934,49.231-.541-.242,23.474-50.393.271.581,23.2,49.812Z" transform="translate(-2365.463 -2034.977)" fill="#62698c"/>
          <path id="Trazado_979491" data-name="Trazado 979491" d="M2925.708,2747.945a24.963,24.963,0,0,1-5.289,11.3,26.1,26.1,0,0,1-36.226,3.81q-.724-.574-1.4-1.188a25.037,25.037,0,0,1-7.762-13.924Z" transform="translate(-2356.995 -2262)" fill="#2d334a"/>
          <path id="Trazado_979492" data-name="Trazado 979492" d="M2915.518,2747.945a25.206,25.206,0,0,1-3.706,6.084,26.082,26.082,0,0,1-29.014,7.84,25.039,25.039,0,0,1-7.762-13.924Z" transform="translate(-2356.995 -2262)" fill="#515669"/>
          <path id="Trazado_979493" data-name="Trazado 979493" d="M3011.7,2450.853h-1.406a.317.317,0,0,1-.32-.313v-7.484a.317.317,0,0,1,.32-.314h1.406a.317.317,0,0,1,.319.314v7.484a.317.317,0,0,1-.319.313" transform="translate(-2467.617 -2010.768)" fill="#2d334a"/>
          <path id="Trazado_979494" data-name="Trazado 979494" d="M2773.506,2259.173a6.014,6.014,0,0,0-6.07,5.957c0,3.29,6.07,11.281,6.07,11.281s6.07-7.991,6.07-11.281a6.014,6.014,0,0,0-6.07-5.957m0,8.312a2.373,2.373,0,1,1,2.417-2.373,2.4,2.4,0,0,1-2.417,2.373" transform="translate(-2268.784 -1859.662)" fill="#2d334a"/>
          <path id="Trazado_979495" data-name="Trazado 979495" d="M2783.817,2926.435h-8.983v-15.3a1.391,1.391,0,0,1,1.4-1.378h6.176a1.391,1.391,0,0,1,1.4,1.378Z" transform="translate(-2274.848 -2395.199)" fill="#2d334a"/>
          <path id="Trazado_979496" data-name="Trazado 979496" d="M2780.191,2422.169a3.772,3.772,0,1,1,3.771,3.7,3.737,3.737,0,0,1-3.771-3.7" transform="translate(-2279.24 -1990.787)" fill="#2d334a"/>
          <path id="Trazado_979497" data-name="Trazado 979497" d="M2786.455,2458.359a2.643,2.643,0,1,1,2.643,2.594,2.618,2.618,0,0,1-2.643-2.594" transform="translate(-2284.375 -2021.49)" fill="#2d334a"/>
          <path id="Trazado_979498" data-name="Trazado 979498" d="M2786.455,2484.375a2.643,2.643,0,1,1,2.643,2.594,2.618,2.618,0,0,1-2.643-2.594" transform="translate(-2284.375 -2042.905)" fill="#2d334a"/>
          <path id="Trazado_979499" data-name="Trazado 979499" d="M2786.455,2344.582a2.643,2.643,0,1,1,2.643,2.594,2.618,2.618,0,0,1-2.643-2.594" transform="translate(-2284.375 -1927.832)" fill="#2d334a"/>
          <path id="Trazado_979500" data-name="Trazado 979500" d="M2721.016,2996.659h-44.366v-3.144a.913.913,0,0,1,.921-.9h42.523a.913.913,0,0,1,.921.9Z" transform="translate(-2194.355 -2463.399)" fill="#2d334a"/>
          <path id="Trazado_979501" data-name="Trazado 979501" d="M2872.645,3185.98a4.2,4.2,0,1,1,4.2,4.12,4.159,4.159,0,0,1-4.2-4.12" transform="translate(-2355.035 -2619.182)" fill="#fb8e94"/>
          <path id="Trazado_979502" data-name="Trazado 979502" d="M2895.939,2804.279s73.4-10.75,69.3-86.12" transform="translate(-2374.132 -2237.481)" fill="none" stroke="#fb8e94" stroke-miterlimit="10" stroke-width="9"/>
          <path id="Trazado_979503" data-name="Trazado 979503" d="M3262.406,2604.8a28.741,28.741,0,0,1,3.625-13.39,26.547,26.547,0,0,1,0,26.781,28.738,28.738,0,0,1-3.625-13.39" transform="translate(-2674.567 -2133.142)" fill="#fb8e94"/>
          <path id="Trazado_979504" data-name="Trazado 979504" d="M3275.684,2767.677a29.834,29.834,0,0,1,12.091-7.152,28.947,28.947,0,0,1-6.88,12.1,29.836,29.836,0,0,1-12.091,7.152,28.95,28.95,0,0,1,6.88-12.1" transform="translate(-2679.812 -2272.355)" fill="#fb8e94"/>
          <path id="Trazado_979505" data-name="Trazado 979505" d="M3218.853,2782.9a19.409,19.409,0,0,1-2.7-8.981,19.937,19.937,0,0,1,6.888,6.48,19.4,19.4,0,0,1,2.7,8.981,19.938,19.938,0,0,1-6.887-6.48" transform="translate(-2636.646 -2283.377)" fill="#fb8e94"/>
          <path id="Trazado_979506" data-name="Trazado 979506" d="M3184.607,2873.652a24.171,24.171,0,0,1-1.459-11.613,24.691,24.691,0,0,1,7.139,9.372,24.174,24.174,0,0,1,1.458,11.613,24.682,24.682,0,0,1-7.139-9.372" transform="translate(-2609.448 -2355.918)" fill="#fb8e94"/>
          <path id="Trazado_979507" data-name="Trazado 979507" d="M3038.022,2970.667a35.753,35.753,0,0,1,3.188-16.982,33.095,33.095,0,0,1,2.632,33.279,35.912,35.912,0,0,1-5.82-16.3" transform="translate(-2490.54 -2431.356)" fill="#fb8e94"/>
          <path id="Trazado_979508" data-name="Trazado 979508" d="M3130.385,2934.689a28.676,28.676,0,0,1,2.558-13.625,26.554,26.554,0,0,1,2.111,26.7,28.818,28.818,0,0,1-4.669-13.075" transform="translate(-2566.275 -2404.504)" fill="#fb8e94"/>
          <path id="Trazado_979509" data-name="Trazado 979509" d="M3236.358,2943.8a30.216,30.216,0,0,1,14.089.876,29.875,29.875,0,0,1-12.674,6.1,30.215,30.215,0,0,1-14.089-.876,29.871,29.871,0,0,1,12.674-6.1" transform="translate(-2642.822 -2422.826)" fill="#fb8e94"/>
          <path id="Trazado_979510" data-name="Trazado 979510" d="M3167.577,3057.943a36.08,36.08,0,0,1,15.827,6.065,33.61,33.61,0,0,1-32.634-3.621,36.321,36.321,0,0,1,16.807-2.444" transform="translate(-2583.046 -2517.028)" fill="#fb8e94"/>
          <path id="Trazado_979511" data-name="Trazado 979511" d="M3083.145,3141.174a38.562,38.562,0,0,1,14.9,10.553,39.336,39.336,0,0,1-18.272-1.9,38.559,38.559,0,0,1-14.9-10.553,39.333,39.333,0,0,1,18.272,1.9" transform="translate(-2512.626 -2583.842)" fill="#fb8e94"/>
          <path id="Trazado_979512" data-name="Trazado 979512" d="M2696.1,3182.542a4.2,4.2,0,1,0-4.2,4.119,4.159,4.159,0,0,0,4.2-4.119" transform="translate(-2203.421 -2616.353)" fill="#fb8e94"/>
          <path id="Trazado_979513" data-name="Trazado 979513" d="M2394.964,2800.841s-73.4-10.75-69.3-86.12" transform="translate(-1906.48 -2234.651)" fill="none" stroke="#fb8e94" stroke-miterlimit="10" stroke-width="9"/>
          <path id="Trazado_979514" data-name="Trazado 979514" d="M2311.552,2601.356a28.741,28.741,0,0,0-3.625-13.39,26.546,26.546,0,0,0,0,26.781,28.742,28.742,0,0,0,3.625-13.391" transform="translate(-1889.1 -2130.312)" fill="#fb8e94"/>
          <path id="Trazado_979515" data-name="Trazado 979515" d="M2244.945,2764.238a29.838,29.838,0,0,0-12.091-7.152,28.948,28.948,0,0,0,6.88,12.1,29.837,29.837,0,0,0,12.091,7.152,28.951,28.951,0,0,0-6.88-12.1" transform="translate(-1830.526 -2269.525)" fill="#fb8e94"/>
          <path id="Trazado_979516" data-name="Trazado 979516" d="M2344.455,2779.458a19.405,19.405,0,0,0,2.7-8.981,19.935,19.935,0,0,0-6.888,6.48,19.4,19.4,0,0,0-2.7,8.981,19.937,19.937,0,0,0,6.888-6.48" transform="translate(-1916.371 -2280.547)" fill="#fb8e94"/>
          <path id="Trazado_979517" data-name="Trazado 979517" d="M2381.639,2870.215a24.171,24.171,0,0,0,1.458-11.613,24.692,24.692,0,0,0-7.139,9.372,24.169,24.169,0,0,0-1.458,11.613,24.683,24.683,0,0,0,7.138-9.372" transform="translate(-1946.507 -2353.088)" fill="#fb8e94"/>
          <path id="Trazado_979518" data-name="Trazado 979518" d="M2527.114,2967.229a35.748,35.748,0,0,0-3.188-16.982,33.1,33.1,0,0,0-2.631,33.279,35.917,35.917,0,0,0,5.82-16.3" transform="translate(-2064.305 -2428.527)" fill="#fb8e94"/>
          <path id="Trazado_979519" data-name="Trazado 979519" d="M2443.014,2931.253a28.682,28.682,0,0,0-2.558-13.626,26.554,26.554,0,0,0-2.111,26.7,28.816,28.816,0,0,0,4.669-13.075" transform="translate(-1996.834 -2401.675)" fill="#fb8e94"/>
          <path id="Trazado_979520" data-name="Trazado 979520" d="M2248.818,2940.357a30.211,30.211,0,0,0-14.089.876,29.871,29.871,0,0,0,12.674,6.1,30.217,30.217,0,0,0,14.089-.876,29.87,29.87,0,0,0-12.674-6.1" transform="translate(-1832.063 -2419.997)" fill="#fb8e94"/>
          <path id="Trazado_979521" data-name="Trazado 979521" d="M2290.886,3054.506a36.08,36.08,0,0,0-15.827,6.065,33.608,33.608,0,0,0,32.634-3.621,36.318,36.318,0,0,0-16.807-2.444" transform="translate(-1865.126 -2514.199)" fill="#fb8e94"/>
          <path id="Trazado_979522" data-name="Trazado 979522" d="M2372.867,3137.737a38.558,38.558,0,0,0-14.9,10.553,39.333,39.333,0,0,0,18.272-1.9,38.562,38.562,0,0,0,14.9-10.553,39.334,39.334,0,0,0-18.272,1.9" transform="translate(-1933.095 -2581.013)" fill="#fb8e94"/>
          <path id="Trazado_979523" data-name="Trazado 979523" d="M2777.052,2860.146a4.973,4.973,0,0,1,4.792,3.546h-9.584a4.972,4.972,0,0,1,4.792-3.546" transform="translate(-2272.738 -2354.359)" fill="#fff"/>
          <path id="Trazado_979524" data-name="Trazado 979524" d="M2637.114,2850.662a7.324,7.324,0,0,1,7.059,5.223h-14.118a7.324,7.324,0,0,1,7.059-5.223" transform="translate(-2156.156 -2346.552)" fill="#fff"/>
          <path id="Trazado_979525" data-name="Trazado 979525" d="M2695.272,2850.305c-1.082-3.676-5.372-6.421-10.5-6.421s-9.417,2.745-10.5,6.421Z" transform="translate(-2192.409 -2340.973)" fill="#fff"/>
          <path id="Trazado_979526" data-name="Trazado 979526" d="M2525.072,2628.688a3.01,3.01,0,0,1,6.018,0,3.01,3.01,0,0,1-6.018,0" transform="translate(-2070.09 -2161.401)" fill="#fff"/>
          <path id="Trazado_979527" data-name="Trazado 979527" d="M2993.272,2904.533a3.01,3.01,0,0,1,6.018,0,3.01,3.01,0,0,1-6.018,0" transform="translate(-2453.927 -2388.466)" fill="#fff"/>
          <path id="Trazado_979528" data-name="Trazado 979528" d="M2678.35,2515.916a5.394,5.394,0,0,1,10.785,0,5.394,5.394,0,0,1-10.785,0" transform="translate(-2195.75 -2066.646)" fill="#fff"/>
          <path id="Trazado_979529" data-name="Trazado 979529" d="M3401.435,2998.8a2.273,2.273,0,0,1-1.792-.885c-1.088-1.421-3.047-4.167-2.808-5.236.33-1.47,4.486,2.546,5,6.124Z" transform="translate(-2784.757 -2463.198)" fill="#f5ccb5"/>
          <path id="Trazado_979530" data-name="Trazado 979530" d="M3449.081,3088.08a1.888,1.888,0,0,0,1.186-2.794c-.092-.718-1.393-1.325-2.273-1.145l-19.416,5.024c-.32.051-.9,1.212-.854,1.527a.586.586,0,0,0,.117.28c.337.669,1.888.552,2.664.5,3.808-.257,15.637-2.157,18.578-3.393" transform="translate(-2810.095 -2538.717)" fill="#fff"/>
          <path id="Trazado_979531" data-name="Trazado 979531" d="M3416.3,3028.037c-.216,4.108.677,13.084,1.531,15.553.708,2.048,1.965,1.6,2.022,1.593a1.774,1.774,0,0,0,1.362-1.793l-2.921-15.553Z" transform="translate(-2800.704 -2492.396)" fill="#fff"/>
          <path id="Trazado_979532" data-name="Trazado 979532" d="M3472.415,3412.814a2.243,2.243,0,0,0-2.433-.828,1.824,1.824,0,0,0-1.188,2.362l9.923,27.2a.866.866,0,0,0,1.074.52.843.843,0,0,0,.566-1.035l-.347-1.2c-4.564-19.319-4.986-23.993-7.6-27.021" transform="translate(-2843.677 -2808.525)" fill="#f5ccb5"/>
          <path id="Trazado_979533" data-name="Trazado 979533" d="M3478.123,3254.129c-.233-3.45-1.973-4.276-3.24-4.411a1.827,1.827,0,0,0-.254-.075,1.865,1.865,0,0,0-2.229,1.467l-5.208,28.438a.846.846,0,0,0,.667.976.873.873,0,0,0,.441-.021,2.976,2.976,0,0,0,2.423-1.85c2.091-5.306,7.7-20.038,7.4-24.524" transform="translate(-2842.442 -2674.944)" fill="#fff"/>
          <path id="Trazado_979534" data-name="Trazado 979534" d="M3527.424,3412.814a2.243,2.243,0,0,0-2.433-.828,1.824,1.824,0,0,0-1.188,2.362l9.923,27.2a.865.865,0,0,0,1.073.52.843.843,0,0,0,.566-1.035l-.346-1.2c-4.564-19.319-4.986-23.993-7.6-27.021" transform="translate(-2888.774 -2808.525)" fill="#f5ccb5"/>
          <path id="Trazado_979535" data-name="Trazado 979535" d="M3530.3,3253.093c-.8-3.368-2.651-3.907-3.923-3.84a1.9,1.9,0,0,0-.263-.033,1.852,1.852,0,0,0-1.959,1.8l-.459,28.891a.853.853,0,0,0,.818.858.872.872,0,0,0,.432-.091,2.951,2.951,0,0,0,2.086-2.209c1.19-5.568,4.306-21,3.267-25.375" transform="translate(-2888.773 -2674.627)" fill="#fff"/>
          <path id="Trazado_979536" data-name="Trazado 979536" d="M3549.419,3577.9a4.237,4.237,0,0,1-1.52-.233c-2.207.3-6.7,1.32-6.563,2.4.052.4,8.822.138,9.431.069.429-.049.254-1.3.113-2.028a.385.385,0,0,0-.455-.3,5.465,5.465,0,0,1-1.006.087" transform="translate(-2903.235 -2944.996)" fill="#3b3e54"/>
          <path id="Trazado_979537" data-name="Trazado 979537" d="M3492.4,3577.9a4.238,4.238,0,0,1-1.52-.233c-2.207.3-6.7,1.32-6.563,2.4.052.4,8.822.138,9.431.069.429-.049.254-1.3.113-2.028a.386.386,0,0,0-.455-.3,5.467,5.467,0,0,1-1.006.087" transform="translate(-2856.49 -2944.996)" fill="#3b3e54"/>
          <path id="Trazado_979538" data-name="Trazado 979538" d="M3470.649,3243.639s-5.738,27.659-5.821,29.751a10.29,10.29,0,0,0,1.083,4.909c.645,1.549,7.581,20.649,7.581,20.649l2.635-.335s-2.82-20.334-6.706-24.917c0,0,9.818-27.726,9.818-30.057Z" transform="translate(-2840.508 -2670.036)" fill="#555a6c"/>
          <path id="Trazado_979539" data-name="Trazado 979539" d="M3532.518,3297.712l-2.445.6s-8.452-21.6-8.394-22.677,0-32,0-32l7.41.37a90.581,90.581,0,0,1-3.162,29.758s3.142,1.226,6.59,23.946" transform="translate(-2887.122 -2670.036)" fill="#555a6c"/>
          <path id="Trazado_979540" data-name="Trazado 979540" d="M3508.377,3107.537c.141-.655.27-1.3.381-1.932.075-.418.146-.831.209-1.237.148-.924.267-1.823.361-2.71.043-.42.081-.839.115-1.253q.125-1.534.154-3c.008-.423.014-.838.011-1.252a49.355,49.355,0,0,0-.652-7.725,27.666,27.666,0,0,0-.882-3.794,4.74,4.74,0,0,0-7.742-1.975l-.545.509a5.109,5.109,0,0,0-1.445,5.075c.534,2.013.666,4.949-.131,9.491-.049.279-.1.563-.157.855-.082.415-.17.838-.261,1.279-.134.616-.283,1.262-.446,1.932-.1.4-.2.815-.314,1.238q-.292,1.121-.642,2.338c-.066.226-.132.455-.2.687q-.079.27-.162.544c-.127.434-.266.883-.408,1.338q-.187.6-.387,1.214-.27.833-.564,1.707a9.393,9.393,0,0,0,3.915.538c2.2-.117,4.435-.623,6.583-.14a16.387,16.387,0,0,1,2.1.687q.469-1.633.836-3.192c.1-.411.188-.819.275-1.222" transform="translate(-2864.979 -2536.471)" fill="#fff"/>
          <path id="Trazado_979541" data-name="Trazado 979541" d="M3512.838,3063.635a3.242,3.242,0,0,1,.132-2.414c.608-1.127,1,.177,1,.177Z" transform="translate(-2879.729 -2519.499)" fill="#2d334a"/>
          <path id="Trazado_979542" data-name="Trazado 979542" d="M3550.613,3061.73c-.066.121-1.015,2.427-1.417,2.46-.552.045-.349-1.749-.349-1.749Z" transform="translate(-2909.366 -2520.295)" fill="#2d334a"/>
          <path id="Trazado_979543" data-name="Trazado 979543" d="M3517.276,3029.37a2.523,2.523,0,0,1-.074-2c.448-.781,1.232-1.607,4.324-.957a.924.924,0,0,1,.74.925l-.035,1.255Z" transform="translate(-2883.295 -2491.034)" fill="#2d334a"/>
          <path id="Trazado_979544" data-name="Trazado 979544" d="M3520.2,3035.067c-.316,1.807-.713,3.281-1.9,4.025a3.595,3.595,0,0,1-2.776.476,2.286,2.286,0,0,1-1.936-1.742,10.135,10.135,0,0,1,.215-3.833c.494-2.836,2.178-4.039,3.944-3.743s2.946,1.98,2.452,4.816" transform="translate(-2880.395 -2494.347)" fill="#f5ccb5"/>
          <path id="Trazado_979545" data-name="Trazado 979545" d="M3537.4,3057.733l-3.072-.2a47.151,47.151,0,0,0-.03,5.814c.126.452.9.639,1.72.417.74-.2,1.267-.66,1.275-1.08h0a39.032,39.032,0,0,1,.1-4.947" transform="translate(-2897.394 -2516.837)" fill="#f5ccb5"/>
          <path id="Trazado_979546" data-name="Trazado 979546" d="M3543.71,3034.562a1.486,1.486,0,0,1-1.4-.48,9.721,9.721,0,0,1-1.71-3.676c-.307-1.525.154-1.916.154-1.916s2.945.317,3.546,1.3c.9,1.473-.591,4.771-.591,4.771" transform="translate(-2902.549 -2492.933)" fill="#2d334a"/>
          <path id="Trazado_979547" data-name="Trazado 979547" d="M3519.247,3048.949l-.719,4.139a1.112,1.112,0,0,1-.848.889l-.5.118a.5.5,0,0,1-.623-.465l-.031-.855a.432.432,0,0,0-.332-.4l-1.883-.463a.442.442,0,0,0-.5.229l-.378.761a1.365,1.365,0,0,0,.831,1.907l1.126.355a1.579,1.579,0,0,0,.743.049.568.568,0,0,0,.056-.01l.033-.008h0l.389-.091,1.273-.3a1.97,1.97,0,0,0,1.5-1.573l.719-4.138Z" transform="translate(-2880.241 -2509.775)" fill="#2d334a"/>
          <path id="Trazado_979548" data-name="Trazado 979548" d="M3549.986,3054.479c-.1.615-.859,1.3-1.313,1.226s-.483-.591-.378-1.206.569-1.13,1.022-1.057a.805.805,0,0,1,.669,1.037" transform="translate(-2908.901 -2513.467)" fill="#f5ccb5"/>
          <path id="Trazado_979549" data-name="Trazado 979549" d="M3522.685,3029.411l-1.864-.3a2.673,2.673,0,0,0-1.8.352l-.733.443,1.155-1.573,1.592-.312,1.88.443Z" transform="translate(-2884.339 -2492.55)" fill="#2d334a"/>
          <path id="Trazado_979550" data-name="Trazado 979550" d="M3550.266,3099.959a1.892,1.892,0,0,1,.9-2.9c.537-.5,1.934-.153,2.5.536l11.722,16c.214.239-.184.594-.42.812a.6.6,0,0,1-.271.144,2.461,2.461,0,0,1-2.29-.378c-3.2-2.431-10.666-11.428-12.133-14.217" transform="translate(-2910.273 -2549.187)" fill="#fff"/>
          <path id="Trazado_979551" data-name="Trazado 979551" d="M3581.676,3271.071a2.209,2.209,0,0,0-1.018,1.7c-.129,1.772-.259,5.123.532,5.894,1.089,1.06,2.363-4.526.822-7.807Z" transform="translate(-2935.395 -2692.44)" fill="#f5ccb5"/>
          <path id="Trazado_979552" data-name="Trazado 979552" d="M3581.347,3202.343c1.155-3.954,4.97-12.159,6.6-14.222,1.348-1.711,2.387-.883,2.44-.862a1.75,1.75,0,0,1,.7,2.13l-7.91,13.778Z" transform="translate(-2936.039 -2623.446)" fill="#fff"/>
          <path id="Trazado_979553" data-name="Trazado 979553" d="M3525.528,3100.057c-.955,6.117,1.648,11.4-.007,17.69-.8.672-1.655,1.291-2.493,1.917a30.98,30.98,0,0,1-1.481-2.9c2.514-5.99,1.114-11.087,2.777-16.848.4.041.8.092,1.2.14" transform="translate(-2887.014 -2551.73)" fill="#7ba4b3"/>
          <path id="Trazado_979554" data-name="Trazado 979554" d="M3363.774,3277.827c-.67-3.09-2.353-3.615-3.517-3.575a1.75,1.75,0,0,0-.24-.035,1.693,1.693,0,0,0-1.821,1.612l-.928,26.387a.778.778,0,0,0,.733.8.8.8,0,0,0,.4-.076,2.7,2.7,0,0,0,1.945-1.983c1.185-5.066,4.3-19.109,3.432-23.127" transform="translate(-2752.336 -2695.203)" fill="#8c797b"/>
          <path id="Trazado_979555" data-name="Trazado 979555" d="M3397.694,3266.9c-1.344-2.872-3.1-3.021-4.229-2.732a1.726,1.726,0,0,0-.242.018,1.677,1.677,0,0,0-1.417,1.965l4.986,25.945a.792.792,0,0,0,1.262.461,2.67,2.67,0,0,0,1.455-2.354c.025-5.2-.068-19.57-1.815-23.3" transform="translate(-2780.626 -2686.849)" fill="#8c797b"/>
          <path id="Trazado_979556" data-name="Trazado 979556" d="M3330.462,3577.245s.587,1.963.235,2.078-8.588.462-9.176.115,1.177-.923,1.177-.923a52.943,52.943,0,0,1,6.117-1.27,7.856,7.856,0,0,1,1.647,0" transform="translate(-2722.932 -2944.605)" fill="#8c797b"/>
          <path id="Trazado_979557" data-name="Trazado 979557" d="M3361.691,3420.217c-.471-.923-1-1.385-1.882-1.385a1.689,1.689,0,0,0-1.7,1.731l.918,26.387a.788.788,0,0,0,1.573,0l.04-1.14c1.508-18.061,2.468-22.244,1.056-25.592" transform="translate(-2753.021 -2814.248)" fill="#8c797b"/>
          <path id="Trazado_979558" data-name="Trazado 979558" d="M3324.065,3579.63a10.6,10.6,0,0,0,3.875.608c.513,0,1.007-.025,1.469-.07.107.713.154,1.544-.2,1.584-.622.07-9.575.337-9.628-.07-.1-.8,2.3-1.573,4.483-2.052" transform="translate(-2721.438 -2946.61)" fill="#3b3e54"/>
          <path id="Trazado_979559" data-name="Trazado 979559" d="M3429.781,3566.4s1.032,1.777.715,1.969-8.25,2.386-8.9,2.182.929-1.165.929-1.165a52.462,52.462,0,0,1,5.656-2.616,7.8,7.8,0,0,1,1.6-.371" transform="translate(-2804.941 -2935.708)" fill="#8c797b"/>
          <path id="Trazado_979560" data-name="Trazado 979560" d="M3423.468,3413.682a2.044,2.044,0,0,0-2.156-.924,1.671,1.671,0,0,0-1.253,2.069l7.071,25.474a.788.788,0,0,0,.94.549.772.772,0,0,0,.59-.9l-.228-1.119c-2.76-17.917-2.807-22.205-4.964-25.146" transform="translate(-2803.763 -2809.202)" fill="#8c797b"/>
          <path id="Trazado_979561" data-name="Trazado 979561" d="M3423.979,3571.648a10.617,10.617,0,0,0,3.913-.282c.5-.115.974-.251,1.413-.4.271.669.511,1.468.178,1.586-.589.209-9.24,2.487-9.387,2.1-.29-.76,1.869-2.049,3.883-3.007" transform="translate(-2803.822 -2939.479)" fill="#3b3e54"/>
          <path id="Trazado_979562" data-name="Trazado 979562" d="M3366.978,3281.067s2.664,8.6,1.6,21.9c0,0,3.481,4.911,3,7.619a15.964,15.964,0,0,1-7.741-.373c-4.084-1.27-10.858-.9-10.858-.9s0-2.149,0-3.8,1.018-23.958,1.841-25.578Z" transform="translate(-2748.814 -2699.91)" fill="#3b3e54"/>
          <path id="Trazado_979563" data-name="Trazado 979563" d="M3338.53,3075.111c-3.618-.835-8.927,2.445-8.435,6.4a3.684,3.684,0,0,1,.068,1.116,2.382,2.382,0,0,1-1.065,1.37,19.927,19.927,0,0,0-3.255,2.337,4.6,4.6,0,0,0-.219,5.837,5.325,5.325,0,0,0,5.436,1.525,7.661,7.661,0,0,0,4.468-3.682,5.744,5.744,0,0,1,.8-1.23,11.858,11.858,0,0,1,2.388-1.351,3.677,3.677,0,0,0,1.539-1.976,29.258,29.258,0,0,0,.385-3.252c.25-1.257,1.01-2.423.974-3.7a3.867,3.867,0,0,0-3.086-3.391" transform="translate(-2725.621 -2531.202)" fill="#2d334a"/>
          <path id="Trazado_979564" data-name="Trazado 979564" d="M3371.969,3139.866c.333.106.173-6.622-.621-11.437.179-4.173-.961-14.134-1.933-17.15-1.222-3.79-3.15-5.866-6.363-4.351-1.011.477-1.971,3.268-2.4,6.237s-1.027,2.373.637,6.724c.591,1.547-.9,12.024-1.632,14.794a36.688,36.688,0,0,1-.922,4.342,7.26,7.26,0,0,0,1.791.944c4.433,1.579,7-1.514,11.442-.1" transform="translate(-2753.54 -2557.091)" fill="#fb9fa4"/>
          <path id="Trazado_979565" data-name="Trazado 979565" d="M3397.822,3120.157a1.885,1.885,0,0,1,3.017-2.166l9.481,13.226c.175.2-.182.518-.394.714a.582.582,0,0,1-.24.134,2.054,2.054,0,0,1-1.96-.228c-2.665-1.95-8.75-9.35-9.905-11.68" transform="translate(-2785.375 -2566.122)" fill="#fb9fa4"/>
          <path id="Trazado_979566" data-name="Trazado 979566" d="M3376.075,3059.6s3.006-1.131,3.184-4.122c.238-4.016-3.936-5.9-6.151-4.538-2.039,1.258-1.65,2.984-1.4,3.406s4.365,5.253,4.365,5.253" transform="translate(-2764.007 -2511.052)" fill="#2d334a"/>
          <path id="Trazado_979567" data-name="Trazado 979567" d="M3386.282,3079.423l-3.28-.227a50.3,50.3,0,0,0-.051,6.209c.134.483.955.684,1.835.45.791-.211,1.355-.7,1.365-1.149h0a41.719,41.719,0,0,1,.126-5.281" transform="translate(-2773.32 -2534.672)" fill="#8c797b"/>
          <path id="Trazado_979568" data-name="Trazado 979568" d="M3373.537,3062.548c-.5,2.541-2.7,4.26-4.284,3.962s-1.94-2.5-1.443-5.041,2.032-3.592,3.614-3.293,2.611,1.832,2.114,4.372" transform="translate(-2760.808 -2517.329)" fill="#8c797b"/>
          <path id="Trazado_979569" data-name="Trazado 979569" d="M3378.172,3053.253a6.437,6.437,0,0,0,3.88,4.547c1.658.59,2.19-1.976,2.19-1.976l-1.645-2.428a4.293,4.293,0,0,0-2.356-.921c-.087.01-2.069.778-2.069.778" transform="translate(-2769.474 -2512.671)" fill="#2d334a"/>
          <path id="Trazado_979570" data-name="Trazado 979570" d="M3371.676,3054.51s2.884-1.037,3.307-2.026-1.06-.86-1.06-.86a3.759,3.759,0,0,0-2.248,2.886" transform="translate(-2764.148 -2511.972)" fill="#2d334a"/>
          <path id="Trazado_979571" data-name="Trazado 979571" d="M3393.861,3041.933a1.6,1.6,0,0,1-.438-2.193,1.572,1.572,0,1,1,2.191,2.15,1.81,1.81,0,0,1-1.753.043" transform="translate(-2781.729 -2501.592)" fill="#2d334a"/>
          <path id="Trazado_979572" data-name="Trazado 979572" d="M3398.894,3082.622c-.257.591-1.183,1.1-1.619.914s-.337-.707-.08-1.3.851-1,1.287-.813a.822.822,0,0,1,.413,1.2" transform="translate(-2784.889 -2536.471)" fill="#8c797b"/>
          <path id="Trazado_979573" data-name="Trazado 979573" d="M3464.741,3277.539a2.017,2.017,0,0,0-1.311,1.221c-.562,1.5-1.523,4.371-1.034,5.232.673,1.184,3.193-3.341,2.69-6.557Z" transform="translate(-2838.412 -2697.855)" fill="#8c797b"/>
          <path id="Trazado_979574" data-name="Trazado 979574" d="M3457.167,3208.614c-1.269-3.489-2.862-11.46-2.776-13.807.072-1.947,1.275-1.875,1.326-1.888a1.619,1.619,0,0,1,1.647,1.2l1.577,14.16Z" transform="translate(-2831.957 -2628.268)" fill="#fb9fa4"/>
          <path id="Trazado_979575" data-name="Trazado 979575" d="M3362.581,3116.562a1.8,1.8,0,0,1,2.548-.928,1.674,1.674,0,0,1,1.073,1.841l-4.4,15.584c-.043.257-.522.191-.812.155a.584.584,0,0,1-.258-.1,1.983,1.983,0,0,1-1.064-1.631c-.155-3.258,1.812-12.569,2.914-14.925" transform="translate(-2754.296 -2564.487)" fill="#fb9fa4"/>
          <path id="Trazado_979576" data-name="Trazado 979576" d="M3282.61,3271.933a2.066,2.066,0,0,0-1.793-.22c-1.54.527-4.409,1.618-4.776,2.536-.5,1.262,4.657.3,6.872-2.12Z" transform="translate(-2685.717 -2693.053)" fill="#8c797b"/>
          <path id="Trazado_979577" data-name="Trazado 979577" d="M3305.823,3217.736c1.943-3.176,7.209-9.443,9.113-10.866,1.579-1.181,2.286-.223,2.328-.192a1.568,1.568,0,0,1,.1,2.012l-10.151,10.181Z" transform="translate(-2710.161 -2639.285)" fill="#fb9fa4"/>
        </g>
      </g>
    </g>
  </g>
</svg>
