<svg xmlns="http://www.w3.org/2000/svg" xmlns:xlink="http://www.w3.org/1999/xlink" width="108" height="108" viewBox="0 0 108 108">
  <defs>
    <filter id="Trazado_978624" x="0" y="0" width="108" height="108" filterUnits="userSpaceOnUse">
      <feOffset dy="3" input="SourceAlpha"/>
      <feGaussianBlur stdDeviation="3" result="blur"/>
      <feFlood flood-opacity="0.161"/>
      <feComposite operator="in" in2="blur"/>
      <feComposite in="SourceGraphic"/>
    </filter>
  </defs>
  <g id="_39" data-name="39" transform="translate(-202 -6012)">
    <g transform="matrix(1, 0, 0, 1, 202, 6012)" filter="url(#Trazado_978624)">
      <g id="Trazado_978624-2" data-name="Trazado 978624" transform="translate(9 6)" fill="#f5e9a1">
        <path d="M 45 88.5 C 39.12687683105469 88.5 33.43022537231445 87.35007476806641 28.06830024719238 85.08217620849609 C 22.88852500915527 82.89131164550781 18.23629951477051 79.75458526611328 14.2408504486084 75.75914764404297 C 10.24541282653809 71.76370239257812 7.108687400817871 67.11147308349609 4.917825222015381 61.93170166015625 C 2.649924993515015 56.56977462768555 1.5 50.87312316894531 1.5 45 C 1.5 39.12687683105469 2.649924993515015 33.43022537231445 4.917825222015381 28.06830024719238 C 7.108687400817871 22.88852500915527 10.24541282653809 18.23629951477051 14.2408504486084 14.2408504486084 C 18.23629951477051 10.24541282653809 22.88852500915527 7.108687400817871 28.06830024719238 4.917825222015381 C 33.43022537231445 2.649924993515015 39.12687683105469 1.5 45 1.5 C 50.87312316894531 1.5 56.56977462768555 2.649924993515015 61.93170166015625 4.917825222015381 C 67.11147308349609 7.108687400817871 71.76370239257812 10.24541282653809 75.75914764404297 14.2408504486084 C 79.75458526611328 18.23629951477051 82.89131164550781 22.88852500915527 85.08217620849609 28.06830024719238 C 87.35007476806641 33.43022537231445 88.5 39.12687683105469 88.5 45 C 88.5 50.87312316894531 87.35007476806641 56.56977462768555 85.08217620849609 61.93170166015625 C 82.89131164550781 67.11147308349609 79.75458526611328 71.76370239257812 75.75914764404297 75.75914764404297 C 71.76370239257812 79.75458526611328 67.11147308349609 82.89131164550781 61.93170166015625 85.08217620849609 C 56.56977462768555 87.35007476806641 50.87312316894531 88.5 45 88.5 Z" stroke="none"/>
        <path d="M 45 3 C 39.32871246337891 3 33.82865524291992 4.110054016113281 28.65262985229492 6.299339294433594 C 23.65165710449219 8.414573669433594 19.15968322753906 11.44334411621094 15.301513671875 15.301513671875 C 11.44334411621094 19.15968322753906 8.414573669433594 23.65165710449219 6.299339294433594 28.65262985229492 C 4.110054016113281 33.82865524291992 3 39.32871246337891 3 45 C 3 50.67128753662109 4.110054016113281 56.17134475708008 6.299339294433594 61.34737396240234 C 8.414573669433594 66.34834289550781 11.44334411621094 70.84031677246094 15.301513671875 74.698486328125 C 19.15968322753906 78.55665588378906 23.65165710449219 81.58542633056641 28.65262985229492 83.70066070556641 C 33.82865524291992 85.88994598388672 39.32871246337891 87 45 87 C 50.67128753662109 87 56.17134475708008 85.88994598388672 61.34737396240234 83.70066070556641 C 66.34834289550781 81.58542633056641 70.84031677246094 78.55665588378906 74.698486328125 74.698486328125 C 78.55665588378906 70.84031677246094 81.58542633056641 66.34834289550781 83.70066070556641 61.34737396240234 C 85.88994598388672 56.17134475708008 87 50.67128753662109 87 45 C 87 39.32871246337891 85.88994598388672 33.82865524291992 83.70066070556641 28.65262985229492 C 81.58542633056641 23.65165710449219 78.55665588378906 19.15968322753906 74.698486328125 15.301513671875 C 70.84031677246094 11.44334411621094 66.34834289550781 8.414573669433594 61.34737396240234 6.299339294433594 C 56.17134475708008 4.110054016113281 50.67128753662109 3 45 3 M 45 0 C 69.85281372070312 0 90 20.14718627929688 90 45 C 90 69.85281372070312 69.85281372070312 90 45 90 C 20.14718627929688 90 0 69.85281372070312 0 45 C 0 20.14718627929688 20.14718627929688 0 45 0 Z" stroke="none" fill="#bcac89"/>
      </g>
    </g>
    <g id="juez" transform="translate(218.008 6024.508)">
      <g id="Grupo_1145530" data-name="Grupo 1145530" transform="translate(1.113 1.113)">
        <g id="Grupo_1145500" data-name="Grupo 1145500" transform="translate(10.345)">
          <g id="Grupo_1145478" data-name="Grupo 1145478" transform="translate(9.776)">
            <path id="Trazado_979580" data-name="Trazado 979580" d="M146.788,50.315h3.63l.543-.2V44.79a13.826,13.826,0,0,0,20.125,0v5.322l.543.2h3.63a3.71,3.71,0,0,0,3.71-3.71V23.083A15.583,15.583,0,0,0,163.387,7.5h-4.726a15.583,15.583,0,0,0-15.583,15.583V46.605A3.71,3.71,0,0,0,146.788,50.315Z" transform="translate(-143.078 -7.5)" fill="#554e56"/>
          </g>
          <g id="Grupo_1145481" data-name="Grupo 1145481" transform="translate(25.596 0)">
            <g id="Grupo_1145479" data-name="Grupo 1145479">
              <path id="Trazado_979581" data-name="Trazado 979581" d="M260.992,22.266h1.84a2.968,2.968,0,0,1,2.968,2.968v4.112h.755a4.825,4.825,0,0,1,3.194,1.2V23.083A15.583,15.583,0,0,0,254.167,7.5h-4.489A16.116,16.116,0,0,1,260.992,22.266Z" transform="translate(-249.678 -7.5)" fill="#433f43"/>
            </g>
            <g id="Grupo_1145480" data-name="Grupo 1145480" transform="translate(12.188 30.333)">
              <path id="Trazado_979582" data-name="Trazado 979582" d="M331.8,224.168l.543.2h3.63a3.71,3.71,0,0,0,3.71-3.71v-8.772a4.826,4.826,0,0,1-3.194,1.2h-1.264a13.975,13.975,0,0,1-3.426,5.974v5.1Z" transform="translate(-331.801 -211.889)" fill="#433f43"/>
            </g>
          </g>
          <g id="Grupo_1145484" data-name="Grupo 1145484" transform="translate(8.125 21.846)">
            <g id="Grupo_1145482" data-name="Grupo 1145482">
              <path id="Trazado_979583" data-name="Trazado 979583" d="M137.7,160.644v-4.708a2.8,2.8,0,0,1,.287-1.231H136.8a4.845,4.845,0,0,0,0,9.69h1.42A13.813,13.813,0,0,1,137.7,160.644Z" transform="translate(-131.953 -154.705)" fill="#ffb09e"/>
            </g>
            <g id="Grupo_1145483" data-name="Grupo 1145483" transform="translate(32.929)">
              <path id="Trazado_979584" data-name="Trazado 979584" d="M355.254,154.705h-.9v5.939a13.815,13.815,0,0,1-.517,3.752h1.42a4.845,4.845,0,1,0,0-9.69Z" transform="translate(-353.835 -154.705)" fill="#f89580"/>
            </g>
          </g>
          <g id="Grupo_1145499" data-name="Grupo 1145499" transform="translate(0 14.766)">
            <g id="Grupo_1145498" data-name="Grupo 1145498">
              <path id="Trazado_979585" data-name="Trazado 979585" d="M446.412,355.513H452l-1.781-11.679a8.9,8.9,0,0,0-5.681-7l-.148-.055v12.053h2.019a.742.742,0,0,1,.742.742v5.194A.742.742,0,0,1,446.412,355.513Z" transform="translate(-389.9 -302.68)" fill="#0067c5"/>
              <path id="Trazado_979586" data-name="Trazado 979586" d="M111.01,318.875v-5.194a.742.742,0,0,1,.742-.742h20.093v-12l-16.858-6.311h-.168l-9.5,18.127a.445.445,0,0,1-.789,0l-9.5-18.127h-.168l-9.34,3.5A2.032,2.032,0,0,1,84.2,300.1a3.086,3.086,0,0,0-1.8,1.862l-.531,1.456.523.191a1.215,1.215,0,0,1,.725,1.557l-2.441,6.691a1.213,1.213,0,0,1-1.557.725l-.524-.191-.531,1.456a3.087,3.087,0,0,0,.181,2.586,2.028,2.028,0,0,1-1.037,2.9l.053.287h34.5A.743.743,0,0,1,111.01,318.875Z" transform="translate(-77.204 -266.784)" fill="#004281"/>
              <g id="Grupo_1145485" data-name="Grupo 1145485" transform="translate(31.346 27.846)">
                <path id="Trazado_979587" data-name="Trazado 979587" d="M294.857,294.63l-.839,1.28-5.6,10.684h23.3v-5.654Z" transform="translate(-288.419 -294.63)" fill="#0055a3"/>
              </g>
              <g id="Grupo_1145486" data-name="Grupo 1145486" transform="translate(36.21 27.846)">
                <path id="Trazado_979588" data-name="Trazado 979588" d="M339.629,306.595v-5.654l-16.858-6.311H322.6l-1.406,2.683,12.837,4.806a1.484,1.484,0,0,1,.964,1.39v3.086Z" transform="translate(-321.197 -294.63)" fill="#004281"/>
              </g>
              <g id="Grupo_1145487" data-name="Grupo 1145487" transform="translate(4.66 27.846)">
                <path id="Trazado_979589" data-name="Trazado 979589" d="M112.141,298.893a2.028,2.028,0,0,1-1.2,1.208,3.086,3.086,0,0,0-1.8,1.862l-.531,1.456.523.191a1.215,1.215,0,0,1,.725,1.557l-.521,1.428h18.71l-5.6-10.685-.838-1.28-9.34,3.5A2.025,2.025,0,0,1,112.141,298.893Z" transform="translate(-108.604 -294.63)" fill="#0055a3"/>
              </g>
              <g id="Grupo_1145489" data-name="Grupo 1145489" transform="translate(50.011 39.81)">
                <g id="Grupo_1145488" data-name="Grupo 1145488">
                  <path id="Trazado_979590" data-name="Trazado 979590" d="M414.19,375.252h4.631V381.6H414.19Z" transform="translate(-414.19 -375.252)" fill="#00366d"/>
                </g>
              </g>
              <g id="Grupo_1145491" data-name="Grupo 1145491" transform="translate(20.368 28.012)">
                <g id="Grupo_1145490" data-name="Grupo 1145490">
                  <path id="Trazado_979591" data-name="Trazado 979591" d="M222.313,295.917a.89.89,0,0,0-1.028,0l-6.84,4.837,6.96,13.28a.445.445,0,0,0,.789,0l6.96-13.28Z" transform="translate(-214.445 -295.754)" fill="#fff"/>
                </g>
              </g>
              <g id="Grupo_1145492" data-name="Grupo 1145492" transform="translate(25.407 30.624)">
                <path id="Trazado_979592" data-name="Trazado 979592" d="M254.692,313.35l-6.291,12,1.921,3.665a.445.445,0,0,0,.789,0l6.96-13.28Z" transform="translate(-248.401 -313.35)" fill="#f9f3f1"/>
              </g>
              <g id="Grupo_1145493" data-name="Grupo 1145493" transform="translate(17.66 22.523)">
                <path id="Trazado_979593" data-name="Trazado 979593" d="M206.26,263.109a13.811,13.811,0,0,1-10.062-4.344v5.322l2.777,5.3,6.856-4.848a.742.742,0,0,1,.857,0l6.856,4.848,2.777-5.3v-5.322A13.811,13.811,0,0,1,206.26,263.109Z" transform="translate(-196.198 -258.765)" fill="#f9f3f1"/>
              </g>
              <g id="Grupo_1145495" data-name="Grupo 1145495" transform="translate(31.628 22.523)">
                <g id="Grupo_1145494" data-name="Grupo 1145494">
                  <path id="Trazado_979594" data-name="Trazado 979594" d="M291.849,262v1.725a1.483,1.483,0,0,1-.17.689L290.323,267l3.378,2.389,2.777-5.3v-5.322A13.909,13.909,0,0,1,291.849,262Z" transform="translate(-290.323 -258.765)" fill="#efe2dd"/>
                </g>
              </g>
              <g id="Grupo_1145496" data-name="Grupo 1145496" transform="translate(13.725 0)">
                <path id="Trazado_979595" data-name="Trazado 979595" d="M169.685,115.311v4.708a14,14,0,0,0,27.994,0v-10.05A2.968,2.968,0,0,0,194.711,107H188.1a2.968,2.968,0,0,0-2.595,1.527l-.19.341a6.756,6.756,0,0,1-5.905,3.475h-6.757a2.968,2.968,0,0,0-2.968,2.968Z" transform="translate(-169.685 -107)" fill="#ffcebf"/>
              </g>
              <g id="Grupo_1145497" data-name="Grupo 1145497" transform="translate(26.071)">
                <path id="Trazado_979596" data-name="Trazado 979596" d="M265.554,107h-3.368a3.022,3.022,0,0,1,1.837,2.78v10.23a14.252,14.252,0,0,1-11.149,13.908,14,14,0,0,0,15.648-13.9v-10.05A2.968,2.968,0,0,0,265.554,107Z" transform="translate(-252.874 -107)" fill="#ffb09e"/>
              </g>
            </g>
          </g>
        </g>
        <g id="Grupo_1145523" data-name="Grupo 1145523" transform="translate(0.902 41.615)">
          <g id="Grupo_1145520" data-name="Grupo 1145520">
            <g id="Grupo_1145501" data-name="Grupo 1145501" transform="translate(17.43 14.474)">
              <path id="Trazado_979597" data-name="Trazado 979597" d="M152.928,396.349a.742.742,0,0,1-.951.443l-20.947-7.641c.01-.023.021-.046.03-.07l1.3-3.571c.009-.024.016-.048.022-.073l20.947,7.641a.742.742,0,0,1,.443.951Z" transform="translate(-131.03 -385.438)" fill="#a44f3e"/>
            </g>
            <g id="Grupo_1145502" data-name="Grupo 1145502" transform="translate(18.177 14.474)">
              <path id="Trazado_979598" data-name="Trazado 979598" d="M157.616,393.08l-20.947-7.641c-.007.024-.014.049-.022.073l-.586,1.605,19.093,6.964a.742.742,0,0,1,.443.951l-.489,1.34,1.153.421a.742.742,0,0,0,.951-.443l.846-2.319A.742.742,0,0,0,157.616,393.08Z" transform="translate(-136.061 -385.439)" fill="#883f2e"/>
            </g>
            <g id="Grupo_1145503" data-name="Grupo 1145503" transform="translate(13.092 12.007)">
              <path id="Trazado_979599" data-name="Trazado 979599" d="M103.9,368.815l3.006,1.1a1.162,1.162,0,0,1,.694,1.49l-1.3,3.571a1.162,1.162,0,0,1-1.49.694l-3.006-1.1Z" transform="translate(-101.798 -368.815)" fill="#528fd8"/>
            </g>
            <g id="Grupo_1145504" data-name="Grupo 1145504" transform="translate(13.092 12.007)">
              <path id="Trazado_979600" data-name="Trazado 979600" d="M103.9,368.815l3.006,1.1a1.162,1.162,0,0,1,.694,1.49l-1.3,3.571a1.162,1.162,0,0,1-1.49.694l-3.006-1.1Z" transform="translate(-101.798 -368.815)" fill="#c96e59"/>
            </g>
            <g id="Grupo_1145505" data-name="Grupo 1145505" transform="translate(14.628 12.007)">
              <path id="Trazado_979601" data-name="Trazado 979601" d="M115.719,369.911l-3.006-1.1-.563,1.543,1.44.525a1.162,1.162,0,0,1,.694,1.49l-1.138,3.12.474.173a1.162,1.162,0,0,0,1.49-.694l1.3-3.571A1.162,1.162,0,0,0,115.719,369.911Z" transform="translate(-112.15 -368.815)" fill="#bb5d4c"/>
            </g>
            <g id="Grupo_1145519" data-name="Grupo 1145519">
              <g id="Grupo_1145506" data-name="Grupo 1145506" transform="translate(0 16.159)">
                <path id="Trazado_979602" data-name="Trazado 979602" d="M13.713,401.308a2.173,2.173,0,0,1,1.29-1.3,2.949,2.949,0,0,0,1.716-1.774l.527-1.444,7.3,2.662-.527,1.444a2.949,2.949,0,0,0,.171,2.462,2.18,2.18,0,0,1-2.644,3.124L15.014,404.1A2.181,2.181,0,0,1,13.713,401.308Z" transform="translate(-13.58 -396.793)" fill="#0573ce"/>
              </g>
              <g id="Grupo_1145507" data-name="Grupo 1145507" transform="translate(0 16.159)">
                <path id="Trazado_979603" data-name="Trazado 979603" d="M13.713,401.308a2.173,2.173,0,0,1,1.29-1.3,2.949,2.949,0,0,0,1.716-1.774l.527-1.444,7.3,2.662-.527,1.444a2.949,2.949,0,0,0,.171,2.462,2.18,2.18,0,0,1-2.644,3.124L15.014,404.1A2.181,2.181,0,0,1,13.713,401.308Z" transform="translate(-13.58 -396.793)" fill="#a44f3e"/>
              </g>
              <g id="Grupo_1145509" data-name="Grupo 1145509" transform="translate(6.609 17.707)">
                <g id="Grupo_1145508" data-name="Grupo 1145508">
                  <path id="Trazado_979604" data-name="Trazado 979604" d="M61.94,409.784l.527-1.444-3.054-1.114-1.1,2.558a2.949,2.949,0,0,0,.171,2.462,2.173,2.173,0,0,1-.369,2.63l1.356.495a2.18,2.18,0,0,0,2.644-3.124A2.949,2.949,0,0,1,61.94,409.784Z" transform="translate(-58.111 -407.226)" fill="#883f2e"/>
                </g>
              </g>
              <g id="Grupo_1145510" data-name="Grupo 1145510" transform="translate(1.423 16.159)">
                <path id="Trazado_979605" data-name="Trazado 979605" d="M24.885,398.237l.527-1.444,7.3,2.662-.527,1.444a2.949,2.949,0,0,0,.171,2.462l-9.185-3.35A2.95,2.95,0,0,0,24.885,398.237Z" transform="translate(-23.169 -396.793)" fill="#c96e59"/>
              </g>
              <g id="Grupo_1145512" data-name="Grupo 1145512" transform="translate(6.619 17.707)">
                <g id="Grupo_1145511" data-name="Grupo 1145511">
                  <path id="Trazado_979606" data-name="Trazado 979606" d="M62,409.784l.527-1.444-3.054-1.114-1.1,2.558a3.126,3.126,0,0,0-.189,1.007l3.989,1.455A2.95,2.95,0,0,1,62,409.784Z" transform="translate(-58.179 -407.226)" fill="#bb5d4c"/>
                </g>
              </g>
              <g id="Grupo_1145513" data-name="Grupo 1145513" transform="translate(6.947)">
                <path id="Trazado_979607" data-name="Trazado 979607" d="M60.39,295.074l.527-1.444a2.949,2.949,0,0,0-.171-2.462,2.18,2.18,0,0,1,2.644-3.124l6.53,2.382a2.18,2.18,0,0,1,.011,4.093,2.949,2.949,0,0,0-1.716,1.774l-.527,1.444Z" transform="translate(-60.39 -287.91)" fill="#0573ce"/>
              </g>
              <g id="Grupo_1145514" data-name="Grupo 1145514" transform="translate(6.947)">
                <path id="Trazado_979608" data-name="Trazado 979608" d="M60.39,295.074l.527-1.444a2.949,2.949,0,0,0-.171-2.462,2.18,2.18,0,0,1,2.644-3.124l6.53,2.382a2.18,2.18,0,0,1,.011,4.093,2.949,2.949,0,0,0-1.716,1.774l-.527,1.444Z" transform="translate(-60.39 -287.91)" fill="#a44f3e"/>
              </g>
              <g id="Grupo_1145515" data-name="Grupo 1145515" transform="translate(11.132 1.783)">
                <path id="Trazado_979609" data-name="Trazado 979609" d="M93.937,300.654l-2.007-.732a2.18,2.18,0,0,1-1.008,3.323,2.949,2.949,0,0,0-1.716,1.774l-.614,1.81,3.113,1.136.527-1.444a2.949,2.949,0,0,1,1.716-1.774,2.18,2.18,0,0,0-.011-4.093Z" transform="translate(-88.592 -299.922)" fill="#883f2e"/>
              </g>
              <g id="Grupo_1145517" data-name="Grupo 1145517" transform="translate(6.947 3.257)">
                <g id="Grupo_1145516" data-name="Grupo 1145516">
                  <path id="Trazado_979610" data-name="Trazado 979610" d="M60.39,313.763l.527-1.444a2.949,2.949,0,0,0-.171-2.462l9.185,3.35a2.949,2.949,0,0,0-1.716,1.774l-.527,1.444Z" transform="translate(-60.39 -309.857)" fill="#c96e59"/>
                </g>
              </g>
              <g id="Grupo_1145518" data-name="Grupo 1145518" transform="translate(11.132 5.333)">
                <path id="Trazado_979611" data-name="Trazado 979611" d="M90.455,323.846a3.014,3.014,0,0,0-1.249,1.547l-.614,1.81,3.113,1.136.527-1.444a2.949,2.949,0,0,1,1.716-1.774Z" transform="translate(-88.592 -323.846)" fill="#bb5d4c"/>
              </g>
            </g>
          </g>
          <g id="Grupo_1145521" data-name="Grupo 1145521" transform="translate(2.338 6.812)">
            <path id="Trazado_979612" data-name="Trazado 979612" d="M41.676,336.839,33.609,333.9a1.363,1.363,0,0,0-1.748.813L29.42,341.4a1.363,1.363,0,0,0,.813,1.748l8.067,2.943a1.363,1.363,0,0,0,1.748-.813l2.441-6.691A1.363,1.363,0,0,0,41.676,336.839Z" transform="translate(-29.338 -333.814)" fill="#d8aa5e"/>
          </g>
          <g id="Grupo_1145522" data-name="Grupo 1145522" transform="translate(4.414 6.812)">
            <path id="Trazado_979613" data-name="Trazado 979613" d="M53.587,336.839,45.52,333.9a1.363,1.363,0,0,0-1.748.813l-.448,1.227,6.5,2.372a1.363,1.363,0,0,1,.813,1.747l-1.993,5.464,1.565.571a1.363,1.363,0,0,0,1.748-.813l2.441-6.691A1.363,1.363,0,0,0,53.587,336.839Z" transform="translate(-43.325 -333.814)" fill="#c99c56"/>
          </g>
        </g>
        <g id="Grupo_1145524" data-name="Grupo 1145524" transform="translate(44.151 60.921)">
          <path id="Trazado_979614" data-name="Trazado 979614" d="M327.706,424.678H305.742a.742.742,0,0,1-.742-.742v-5.194a.742.742,0,0,1,.742-.742h21.964a.742.742,0,0,1,.742.742v5.194A.742.742,0,0,1,327.706,424.678Z" transform="translate(-305 -418)" fill="#fe7d43"/>
        </g>
        <g id="Grupo_1145525" data-name="Grupo 1145525" transform="translate(44.151 60.921)">
          <path id="Trazado_979615" data-name="Trazado 979615" d="M327.706,418H325.48v2.968a.742.742,0,0,1-.742.742H305v2.226a.742.742,0,0,0,.742.742h21.964a.742.742,0,0,0,.742-.742v-5.194A.742.742,0,0,0,327.706,418Z" transform="translate(-305 -418)" fill="#fd6930"/>
        </g>
        <g id="Grupo_1145526" data-name="Grupo 1145526" transform="translate(58.101 60.921)">
          <path id="Trazado_979616" data-name="Trazado 979616" d="M399,418h4.452v6.678H399Z" transform="translate(-399 -418)" fill="#d8aa5e"/>
        </g>
        <g id="Grupo_1145527" data-name="Grupo 1145527" transform="translate(58.101 64.631)">
          <path id="Trazado_979617" data-name="Trazado 979617" d="M399,443h4.452v2.968H399Z" transform="translate(-399 -443)" fill="#c99c56"/>
        </g>
        <g id="Grupo_1145528" data-name="Grupo 1145528" transform="translate(0 67.451)">
          <path id="Trazado_979618" data-name="Trazado 979618" d="M80.516,468.307H8.242a.742.742,0,0,1-.742-.742v-4.823A.742.742,0,0,1,8.242,462H80.516a.742.742,0,0,1,.742.742v4.823A.742.742,0,0,1,80.516,468.307Z" transform="translate(-7.5 -462)" fill="#c96e59"/>
        </g>
        <g id="Grupo_1145529" data-name="Grupo 1145529" transform="translate(0 67.451)">
          <path id="Trazado_979619" data-name="Trazado 979619" d="M80.516,462H75.1v2.6a.742.742,0,0,1-.742.742H7.5v2.226a.742.742,0,0,0,.742.742H80.516a.742.742,0,0,0,.742-.742v-4.823A.742.742,0,0,0,80.516,462Z" transform="translate(-7.5 -462)" fill="#bb5d4c"/>
        </g>
      </g>
      <g id="Grupo_1145531" data-name="Grupo 1145531" transform="translate(0 0)">
        <path id="Trazado_979620" data-name="Trazado 979620" d="M243.724,170.177a1.113,1.113,0,1,0,0-2.226,1.308,1.308,0,0,1-.282-2.584,1.755,1.755,0,0,0,1.394-1.722v-1.219a1.113,1.113,0,0,0-2.226,0v.864a3.534,3.534,0,0,0,1.113,6.887Z" transform="translate(-204.545 -137.373)"/>
        <path id="Trazado_979621" data-name="Trazado 979621" d="M216.237,158.914a1.113,1.113,0,0,0,1.113-1.113v-2.188a1.113,1.113,0,0,0-2.226,0V157.8A1.113,1.113,0,0,0,216.237,158.914Z" transform="translate(-183.198 -131.571)"/>
        <path id="Trazado_979622" data-name="Trazado 979622" d="M298.989,154.5a1.113,1.113,0,0,0-1.113,1.113V157.8a1.113,1.113,0,0,0,2.226,0v-2.188A1.113,1.113,0,0,0,298.989,154.5Z" transform="translate(-253.669 -131.571)"/>
        <path id="Trazado_979623" data-name="Trazado 979623" d="M235.113,240.726h6.678a1.113,1.113,0,0,0,0-2.226h-6.678a1.113,1.113,0,0,0,0,2.226Z" transform="translate(-199.273 -203.105)"/>
        <path id="Trazado_979624" data-name="Trazado 979624" d="M278.986,133.468a1.136,1.136,0,0,0,.139-.009l5.936-.742a1.113,1.113,0,1,0-.276-2.209l-5.936.742a1.113,1.113,0,0,0,.137,2.218Z" transform="translate(-236.636 -111.132)"/>
        <path id="Trazado_979625" data-name="Trazado 979625" d="M257.613,324.523a1.113,1.113,0,0,0,1.113-1.113v-.3a1.113,1.113,0,1,0-2.226,0v.3A1.113,1.113,0,0,0,257.613,324.523Z" transform="translate(-218.434 -274.213)"/>
        <path id="Trazado_979626" data-name="Trazado 979626" d="M258.726,356.91v-.3a1.113,1.113,0,1,0-2.226,0v.3a1.113,1.113,0,1,0,2.226,0Z" transform="translate(-218.434 -302.741)"/>
        <path id="Trazado_979627" data-name="Trazado 979627" d="M74.5,67.488l-.547-3.59a1.113,1.113,0,0,0-2.2.336l.49,3.217H69.825V62.776a1.857,1.857,0,0,0-1.855-1.855h-.758V51.837A7.8,7.8,0,0,1,70.68,57.2l.289,1.9a1.113,1.113,0,0,0,2.2-.336l-.289-1.9a10.026,10.026,0,0,0-6.391-7.872l-11.38-4.26a4.831,4.831,0,0,0,3.129-4.515v-8.3a5.942,5.942,0,0,0,0-8.22v-7A16.715,16.715,0,0,0,41.543,0H36.816A16.747,16.747,0,0,0,24.549,5.372a1.113,1.113,0,0,0,1.635,1.51A14.515,14.515,0,0,1,36.816,2.226h4.726A14.486,14.486,0,0,1,56.012,16.7v5.526a5.915,5.915,0,0,0-1.723-.364v-3.01a4.086,4.086,0,0,0-4.081-4.081H43.6a4.083,4.083,0,0,0-3.568,2.1l-.19.341a5.645,5.645,0,0,1-4.932,2.9H28.151a4.078,4.078,0,0,0-3.338,1.737h-.385a5.927,5.927,0,0,0-2.081.376V16.7a14.371,14.371,0,0,1,1.2-5.771,1.113,1.113,0,0,0-2.041-.889,16.581,16.581,0,0,0-1.383,6.66v7a5.942,5.942,0,0,0,0,8.221v8.3a4.831,4.831,0,0,0,3.129,4.515l-2.616.979A3.28,3.28,0,0,0,18.874,44.2l-6.531-2.382a3.293,3.293,0,0,0-3.993,4.719,1.829,1.829,0,0,1,.093,1.532l-.134.366a2.477,2.477,0,0,0-2.478,1.623l-2.44,6.691a2.478,2.478,0,0,0,.851,2.838l-.134.366a1.829,1.829,0,0,1-1.057,1.112,3.293,3.293,0,0,0,.017,6.182l.569.208H1.855A1.857,1.857,0,0,0,0,69.306v4.823a1.857,1.857,0,0,0,1.855,1.855H74.129a1.857,1.857,0,0,0,1.855-1.855V69.306A1.858,1.858,0,0,0,74.5,67.488Zm-6.9-4.341v4.3H64.78v-4.3ZM46.006,60.921a1.857,1.857,0,0,0-1.855,1.855v4.675h-1.38l.465-1.276A1.858,1.858,0,0,0,42.129,63.8l-1.892-.69a1.554,1.554,0,0,0,.323-.418L43.644,56.8H64.987v4.118Zm16.547,2.226v4.3H60.327v-4.3Zm-4.452,0v4.3H46.377v-4.3ZM39.179,45.237l5.847,4.134-3.033,5.787,0,0-2.812,5.365L33.333,49.371ZM32.29,47.382l-2.06-3.931V41.065a15.03,15.03,0,0,0,7.007,2.819Zm8.831-3.5a15.031,15.031,0,0,0,7.007-2.819v2.386l-2.06,3.931ZM37.494,62.106,22.955,56.8H34.715Zm3.523,3.655-.592,1.622L21,60.3l.3-.811.3-.811ZM64.987,50.808v3.769H44.811l4.961-9.465ZM54.289,28.9V24.09a3.731,3.731,0,0,1-.23,7.443,15.137,15.137,0,0,0,.23-2.635Zm-.8,4.865h.445a5.927,5.927,0,0,0,2.081-.376v6.831a2.6,2.6,0,0,1-2.6,2.6h-3.06V39.057A15.126,15.126,0,0,0,53.486,33.763ZM26.3,24.19a1.857,1.857,0,0,1,1.855-1.855h6.757a7.873,7.873,0,0,0,6.878-4.047l.19-.341a1.856,1.856,0,0,1,1.622-.954h6.611a1.857,1.857,0,0,1,1.855,1.855V28.9a12.884,12.884,0,0,1-25.768,0V24.19ZM20.7,27.8a3.737,3.737,0,0,1,3.376-3.715c0,.034,0,.067,0,.1V28.9a15.138,15.138,0,0,0,.23,2.635A3.736,3.736,0,0,1,20.7,27.8Zm1.651,12.414V33.387a5.927,5.927,0,0,0,2.081.376h.445A15.125,15.125,0,0,0,28,39.057v3.758h-3.06A2.6,2.6,0,0,1,22.347,40.218ZM18.891,50.379a3.288,3.288,0,0,0,2.079-2.415l7.618-2.852,4.961,9.465H20.022l-1.336-.487a2.485,2.485,0,0,0-.987-2.23l.134-.368a1.828,1.828,0,0,1,1.057-1.112Zm.97,6.561-1.3,3.571a.046.046,0,0,1-.025.028.045.045,0,0,1-.038,0l-1.832-.668L18,56.209l1.832.668A.049.049,0,0,1,19.86,56.94Zm-9.649-12.4a1.068,1.068,0,0,1,1.369-.637l6.531,2.382a1.067,1.067,0,0,1,.308,1.831l-8.253-3.01a1.061,1.061,0,0,1,.045-.566Zm6.068,5.165a4.253,4.253,0,0,0-.537,1.019l-.1.27-5.208-1.9.1-.27A4.259,4.259,0,0,0,10.78,47.7Zm-10.8,7.8,2.44-6.691a.245.245,0,0,1,.129-.141.245.245,0,0,1,.191-.008l8.067,2.943a.25.25,0,0,1,.149.321l-2.441,6.69a.25.25,0,0,1-.32.149L5.632,57.829a.25.25,0,0,1-.149-.32Zm6.024,4.833-.1.27a4.253,4.253,0,0,0-.245,1.126l-5.5-2.006A4.255,4.255,0,0,0,6.2,60.712l.1-.27,1.4.512ZM3.229,64.6a1.067,1.067,0,0,1,.294-1.279l8.253,3.01a1.064,1.064,0,0,1-.045.566,1.047,1.047,0,0,1-.464.554H10.134l-6.3-2.3a1.059,1.059,0,0,1-.6-.553Zm70.529,9.159H2.226V69.677H18.848a1.113,1.113,0,0,0,0-2.226H13.889a3.285,3.285,0,0,0-.3-2.545,1.829,1.829,0,0,1-.093-1.531h0l.134-.368c.05,0,.1.006.149.006a2.487,2.487,0,0,0,2.044-1.077l1.906.7a2.262,2.262,0,0,0,2.193-.356l14.19,5.176H24.042a1.113,1.113,0,0,0,0,2.226H73.758Z" transform="translate(0 0)"/>
      </g>
    </g>
  </g>
</svg>
