<svg xmlns="http://www.w3.org/2000/svg" xmlns:xlink="http://www.w3.org/1999/xlink" width="108" height="108" viewBox="0 0 108 108">
  <defs>
    <filter id="Trazado_978624" x="0" y="0" width="108" height="108" filterUnits="userSpaceOnUse">
      <feOffset dy="3" input="SourceAlpha"/>
      <feGaussianBlur stdDeviation="3" result="blur"/>
      <feFlood flood-opacity="0.161"/>
      <feComposite operator="in" in2="blur"/>
      <feComposite in="SourceGraphic"/>
    </filter>
  </defs>
  <g id="_42" data-name="42" transform="translate(-201 -705)">
    <g transform="matrix(1, 0, 0, 1, 201, 705)" filter="url(#Trazado_978624)">
      <g id="Trazado_978624-2" data-name="Trazado 978624" transform="translate(9 6)" fill="#f5e9a1">
        <path d="M 45 88.5 C 39.12687683105469 88.5 33.43022537231445 87.35007476806641 28.06830024719238 85.08217620849609 C 22.88852500915527 82.89131164550781 18.23629951477051 79.75458526611328 14.2408504486084 75.75914764404297 C 10.24541282653809 71.76370239257812 7.108687400817871 67.11147308349609 4.917825222015381 61.93170166015625 C 2.649924993515015 56.56977462768555 1.5 50.87312316894531 1.5 45 C 1.5 39.12687683105469 2.649924993515015 33.43022537231445 4.917825222015381 28.06830024719238 C 7.108687400817871 22.88852500915527 10.24541282653809 18.23629951477051 14.2408504486084 14.2408504486084 C 18.23629951477051 10.24541282653809 22.88852500915527 7.108687400817871 28.06830024719238 4.917825222015381 C 33.43022537231445 2.649924993515015 39.12687683105469 1.5 45 1.5 C 50.87312316894531 1.5 56.56977462768555 2.649924993515015 61.93170166015625 4.917825222015381 C 67.11147308349609 7.108687400817871 71.76370239257812 10.24541282653809 75.75914764404297 14.2408504486084 C 79.75458526611328 18.23629951477051 82.89131164550781 22.88852500915527 85.08217620849609 28.06830024719238 C 87.35007476806641 33.43022537231445 88.5 39.12687683105469 88.5 45 C 88.5 50.87312316894531 87.35007476806641 56.56977462768555 85.08217620849609 61.93170166015625 C 82.89131164550781 67.11147308349609 79.75458526611328 71.76370239257812 75.75914764404297 75.75914764404297 C 71.76370239257812 79.75458526611328 67.11147308349609 82.89131164550781 61.93170166015625 85.08217620849609 C 56.56977462768555 87.35007476806641 50.87312316894531 88.5 45 88.5 Z" stroke="none"/>
        <path d="M 45 3 C 39.32871246337891 3 33.82865524291992 4.110054016113281 28.65262985229492 6.299339294433594 C 23.65165710449219 8.414573669433594 19.15968322753906 11.44334411621094 15.301513671875 15.301513671875 C 11.44334411621094 19.15968322753906 8.414573669433594 23.65165710449219 6.299339294433594 28.65262985229492 C 4.110054016113281 33.82865524291992 3 39.32871246337891 3 45 C 3 50.67128753662109 4.110054016113281 56.17134475708008 6.299339294433594 61.34737396240234 C 8.414573669433594 66.34834289550781 11.44334411621094 70.84031677246094 15.301513671875 74.698486328125 C 19.15968322753906 78.55665588378906 23.65165710449219 81.58542633056641 28.65262985229492 83.70066070556641 C 33.82865524291992 85.88994598388672 39.32871246337891 87 45 87 C 50.67128753662109 87 56.17134475708008 85.88994598388672 61.34737396240234 83.70066070556641 C 66.34834289550781 81.58542633056641 70.84031677246094 78.55665588378906 74.698486328125 74.698486328125 C 78.55665588378906 70.84031677246094 81.58542633056641 66.34834289550781 83.70066070556641 61.34737396240234 C 85.88994598388672 56.17134475708008 87 50.67128753662109 87 45 C 87 39.32871246337891 85.88994598388672 33.82865524291992 83.70066070556641 28.65262985229492 C 81.58542633056641 23.65165710449219 78.55665588378906 19.15968322753906 74.698486328125 15.301513671875 C 70.84031677246094 11.44334411621094 66.34834289550781 8.414573669433594 61.34737396240234 6.299339294433594 C 56.17134475708008 4.110054016113281 50.67128753662109 3 45 3 M 45 0 C 69.85281372070312 0 90 20.14718627929688 90 45 C 90 69.85281372070312 69.85281372070312 90 45 90 C 20.14718627929688 90 0 69.85281372070312 0 45 C 0 20.14718627929688 20.14718627929688 0 45 0 Z" stroke="none" fill="#083e61"/>
      </g>
    </g>
    <g id="obediente" transform="translate(213.525 727.951)">
      <g id="Grupo_1145548" data-name="Grupo 1145548" transform="translate(26.17 0.822)">
        <path id="Trazado_979656" data-name="Trazado 979656" d="M151.755,7.5H116.863a.548.548,0,0,0-.548.548V23.237h3.593A2.685,2.685,0,0,1,120.1,28.6v3.331h0a1.1,1.1,0,0,1,.929,1.082v6.8A1.1,1.1,0,0,1,120.1,40.9h0v3.331a2.685,2.685,0,0,1-.187,5.363h-3.593v4.5h7.561a1.1,1.1,0,0,1,1.1,1.1v2.183h.835a1.1,1.1,0,0,1,1.1,1.1v3.494h25.4V8.048A.548.548,0,0,0,151.755,7.5Z" transform="translate(-116.315 -7.5)" fill="#fff3de"/>
      </g>
      <g id="Grupo_1145549" data-name="Grupo 1145549" transform="translate(26.17 0.822)">
        <path id="Trazado_979657" data-name="Trazado 979657" d="M119.908,23.237l.1,0V8.048a.548.548,0,0,1,.548-.548h-3.691a.548.548,0,0,0-.548.548V23.237Z" transform="translate(-116.315 -7.5)" fill="#ffe5c2"/>
        <path id="Trazado_979658" data-name="Trazado 979658" d="M119.908,391.629h-3.593v4.5h3.691v-4.5Z" transform="translate(-116.315 -349.539)" fill="#ffe5c2"/>
      </g>
      <g id="Grupo_1145567" data-name="Grupo 1145567" transform="translate(15.9 16.559)">
        <g id="Grupo_1145550" data-name="Grupo 1145550" transform="translate(14.98 11.303)">
          <path id="Trazado_979659" data-name="Trazado 979659" d="M159.3,254.29h5.072v3.747H159.3Z" transform="translate(-159.296 -254.29)" fill="#883f2e"/>
          <path id="Trazado_979660" data-name="Trazado 979660" d="M237.5,254.29h7.244v3.747H237.5Z" transform="translate(-228.933 -254.29)" fill="#883f2e"/>
        </g>
        <g id="Grupo_1145551" data-name="Grupo 1145551" transform="translate(14.98 13.244)">
          <path id="Trazado_979661" data-name="Trazado 979661" d="M159.3,272h5.072v1.806H159.3Z" transform="translate(-159.296 -272)" fill="#6d3326"/>
          <path id="Trazado_979662" data-name="Trazado 979662" d="M237.5,272h7.244v1.806H237.5Z" transform="translate(-228.933 -272)" fill="#6d3326"/>
        </g>
        <g id="Grupo_1145552" data-name="Grupo 1145552" transform="translate(30.792 10.429)">
          <path id="Trazado_979663" data-name="Trazado 979663" d="M323.974,249.058a2.748,2.748,0,0,1-2.748,2.748H304.24a.625.625,0,0,1-.625-.625v-4.246a.625.625,0,0,1,.625-.625h16.986A2.748,2.748,0,0,1,323.974,249.058Z" transform="translate(-303.616 -246.31)" fill="#ca6e59"/>
        </g>
        <g id="Grupo_1145553" data-name="Grupo 1145553" transform="translate(30.792 10.429)">
          <path id="Trazado_979664" data-name="Trazado 979664" d="M307.35,249.453a.624.624,0,0,1-.624-.625V246.31h-2.485a.625.625,0,0,0-.625.625v4.246a.625.625,0,0,0,.625.625h16.986a2.748,2.748,0,0,0,2.719-2.352Z" transform="translate(-303.616 -246.31)" fill="#bb5d4c"/>
        </g>
        <g id="Grupo_1145554" data-name="Grupo 1145554" transform="translate(20.052 10.429)">
          <path id="Trazado_979665" data-name="Trazado 979665" d="M209.082,246.859v4.4a.548.548,0,0,1-.548.548h-2.4a.548.548,0,0,1-.548-.548v-4.4a.548.548,0,0,1,.548-.548h2.4A.548.548,0,0,1,209.082,246.859Z" transform="translate(-205.585 -246.311)" fill="#ca6e59"/>
        </g>
        <g id="Grupo_1145555" data-name="Grupo 1145555" transform="translate(20.052 10.429)">
          <path id="Trazado_979666" data-name="Trazado 979666" d="M207.173,251.259v-4.4a.548.548,0,0,1,.548-.548h-1.589a.548.548,0,0,0-.548.548v4.4a.548.548,0,0,0,.548.548h1.589A.548.548,0,0,1,207.173,251.259Z" transform="translate(-205.585 -246.311)" fill="#bb5d4c"/>
        </g>
        <g id="Grupo_1145556" data-name="Grupo 1145556" transform="translate(6.807 5.363)">
          <path id="Trazado_979667" data-name="Trazado 979667" d="M91.78,312.311H84.87a1.1,1.1,0,0,1-.167-.014v3.331c.062,0,.124-.007.187-.007H91.76c.063,0,.125,0,.187.007V312.3A1.081,1.081,0,0,1,91.78,312.311Z" transform="translate(-84.703 -300.001)" fill="#883f2e"/>
          <path id="Trazado_979668" data-name="Trazado 979668" d="M84.87,312.311a1.1,1.1,0,0,1-.167-.014v3.331c.062,0,.124-.007.187-.007h2.572v-3.31H84.87Z" transform="translate(-84.703 -300.001)" fill="#6d3326"/>
          <path id="Trazado_979669" data-name="Trazado 979669" d="M84.87,203.4h6.91a1.1,1.1,0,0,1,.167.014v-3.331c-.062,0-.124.007-.187.007H84.89c-.063,0-.125,0-.187-.007v3.331A1.1,1.1,0,0,1,84.87,203.4Z" transform="translate(-84.703 -200.079)" fill="#883f2e"/>
          <path id="Trazado_979670" data-name="Trazado 979670" d="M84.87,203.4h2.592v-3.31H84.89c-.063,0-.125,0-.187-.007v3.331a1.112,1.112,0,0,1,.167-.014Z" transform="translate(-84.703 -200.078)" fill="#6d3326"/>
        </g>
        <g id="Grupo_1145557" data-name="Grupo 1145557" transform="translate(5.878 8.68)">
          <path id="Trazado_979671" data-name="Trazado 979671" d="M85.327,231.448v6.8a1.1,1.1,0,0,1-1.1,1.1h-6.91a1.1,1.1,0,0,1-1.1-1.1v-6.8a1.1,1.1,0,0,1,1.1-1.1h6.91A1.1,1.1,0,0,1,85.327,231.448Z" transform="translate(-76.225 -230.352)" fill="#ca6e59"/>
        </g>
        <g id="Grupo_1145558" data-name="Grupo 1145558" transform="translate(5.878 8.68)">
          <path id="Trazado_979672" data-name="Trazado 979672" d="M79.926,238.249v-6.8a1.1,1.1,0,0,1,1.1-1.1h-3.7a1.1,1.1,0,0,0-1.1,1.1v6.8a1.1,1.1,0,0,0,1.1,1.1h3.7A1.1,1.1,0,0,1,79.926,238.249Z" transform="translate(-76.225 -230.352)" fill="#bb5d4c"/>
        </g>
        <g id="Grupo_1145561" data-name="Grupo 1145561" transform="translate(0 30.849)">
          <path id="Trazado_979673" data-name="Trazado 979673" d="M57.186,436.073a1.122,1.122,0,0,0,.006-.112v-2.18a1.1,1.1,0,0,0-1.1-1.1H41.291a1.1,1.1,0,0,0-1.1,1.1v2.18a1.123,1.123,0,0,0,.006.112Z" transform="translate(-38.265 -432.685)" fill="#ca6e59"/>
          <path id="Trazado_979674" data-name="Trazado 979674" d="M43.9,436.073a1.122,1.122,0,0,1-.006-.112v-2.18a1.1,1.1,0,0,1,1.1-1.1h-3.7a1.1,1.1,0,0,0-1.1,1.1v2.18a1.12,1.12,0,0,0,.006.112Z" transform="translate(-38.265 -432.685)" fill="#bb5d4c"/>
          <g id="Grupo_1145559" data-name="Grupo 1145559" transform="translate(0 3.279)">
            <path id="Trazado_979675" data-name="Trazado 979675" d="M43.436,467.2H23.126a.548.548,0,0,1-.548-.548V463.7a1.1,1.1,0,0,1,1.1-1.1H42.34a1.1,1.1,0,0,1,1.1,1.1Z" transform="translate(-22.578 -462.608)" fill="#883f2e"/>
          </g>
          <g id="Grupo_1145560" data-name="Grupo 1145560" transform="translate(0 3.279)">
            <path id="Trazado_979676" data-name="Trazado 979676" d="M26.24,466.65V463.7a1.1,1.1,0,0,1,1.1-1.1H23.674a1.1,1.1,0,0,0-1.1,1.1v2.946a.548.548,0,0,0,.548.548h3.662A.548.548,0,0,1,26.24,466.65Z" transform="translate(-22.578 -462.608)" fill="#6d3326"/>
          </g>
        </g>
        <g id="Grupo_1145566" data-name="Grupo 1145566" transform="translate(4.309)">
          <g id="Grupo_1145562" data-name="Grupo 1145562" transform="translate(0 20.983)">
            <path id="Trazado_979677" data-name="Trazado 979677" d="M74.145,345.318A2.685,2.685,0,0,1,71.46,348H64.59a2.685,2.685,0,1,1,0-5.37H71.46A2.685,2.685,0,0,1,74.145,345.318Z" transform="translate(-61.905 -342.633)" fill="#ca6e59"/>
          </g>
          <g id="Grupo_1145563" data-name="Grupo 1145563" transform="translate(0 20.983)">
            <path id="Trazado_979678" data-name="Trazado 979678" d="M65.563,345.318a2.685,2.685,0,0,1,2.685-2.685H64.59a2.685,2.685,0,1,0,0,5.37h3.658A2.685,2.685,0,0,1,65.563,345.318Z" transform="translate(-61.905 -342.633)" fill="#bb5d4c"/>
          </g>
          <g id="Grupo_1145564" data-name="Grupo 1145564" transform="translate(0)">
            <path id="Trazado_979679" data-name="Trazado 979679" d="M74.145,153.813A2.685,2.685,0,0,1,71.46,156.5H64.59a2.685,2.685,0,1,1,0-5.371H71.46A2.685,2.685,0,0,1,74.145,153.813Z" transform="translate(-61.905 -151.128)" fill="#ca6e59"/>
          </g>
          <g id="Grupo_1145565" data-name="Grupo 1145565">
            <path id="Trazado_979680" data-name="Trazado 979680" d="M65.563,153.813a2.685,2.685,0,0,1,2.685-2.685H64.59a2.685,2.685,0,1,0,0,5.371h3.658A2.685,2.685,0,0,1,65.563,153.813Z" transform="translate(-61.905 -151.128)" fill="#bb5d4c"/>
          </g>
        </g>
      </g>
      <g id="Grupo_1145570" data-name="Grupo 1145570" transform="translate(36.476 5.928)">
        <g id="Grupo_1145568" data-name="Grupo 1145568">
          <circle id="Elipse_11633" data-name="Elipse 11633" cx="7.688" cy="7.688" r="7.688" fill="#4fc123"/>
        </g>
        <g id="Grupo_1145569" data-name="Grupo 1145569" transform="translate(0)">
          <path id="Trazado_979681" data-name="Trazado 979681" d="M214.057,61.8a7.69,7.69,0,0,1,5.846-7.464,7.688,7.688,0,1,0,0,14.929A7.69,7.69,0,0,1,214.057,61.8Z" transform="translate(-210.372 -54.107)" fill="#47a920"/>
        </g>
      </g>
      <g id="Grupo_1145571" data-name="Grupo 1145571" transform="translate(15.078 0)">
        <path id="Trazado_979682" data-name="Trazado 979682" d="M64.3,26.166H62.98V11.943a.822.822,0,0,0-.847-.821.845.845,0,0,0-.8.856V26.166H55.828a.822.822,0,1,0,0,1.643H64.3a1.926,1.926,0,1,1,0,3.852H47.514V27.809h4.479a.822.822,0,1,0,0-1.643H47.317a1.448,1.448,0,0,0-1.328.874H40.176a1.371,1.371,0,0,0-1.275-.874H36.5a1.371,1.371,0,0,0-1.275.874H31.7v-.705a1.916,1.916,0,0,0-.929-1.64V22.6a3.507,3.507,0,0,0-1.009-6.865H26.992V1.644H61.336V8.108a.822.822,0,0,0,.847.821.845.845,0,0,0,.8-.856V1.37A1.37,1.37,0,0,0,61.61,0H26.718a1.37,1.37,0,0,0-1.37,1.37V15.737H22.894A3.507,3.507,0,0,0,21.885,22.6v2.092a1.916,1.916,0,0,0-.929,1.64v6.8a1.916,1.916,0,0,0,.929,1.64v2.092a3.507,3.507,0,0,0,1.009,6.865h2.454v2.853H18.926A1.92,1.92,0,0,0,17.008,48.5v1.361H17a1.92,1.92,0,0,0-1.917,1.917v2.946a1.371,1.371,0,0,0,1.37,1.37H61.61a1.37,1.37,0,0,0,1.37-1.37V33.3H64.3a3.569,3.569,0,0,0,0-7.139ZM40.27,28.684h5.6v2.1h-5.6Zm-3.5-.874h1.854v3.852H36.773Zm-5.072.874H35.13v2.1H31.7ZM21.03,19.244a1.866,1.866,0,0,1,1.864-1.864h6.869a1.864,1.864,0,1,1,0,3.727H22.894A1.866,1.866,0,0,1,21.03,19.244ZM22.873,33.41a.274.274,0,0,1-.274-.274v-6.8a.274.274,0,0,1,.274-.274h6.91a.274.274,0,0,1,.274.274v6.8a.274.274,0,0,1-.274.274Zm6.255,1.644V36.72h-5.6V35.053Zm-5.6-10.636V22.751h5.6v1.666ZM22.894,42.09a1.864,1.864,0,1,1,0-3.727h6.869a1.864,1.864,0,1,1,0,3.727ZM35.936,54.455H16.722V51.782A.274.274,0,0,1,17,51.508h5.086a.822.822,0,1,0,0-1.644h-3.43V48.5a.274.274,0,0,1,.274-.274H33.731a.274.274,0,0,1,.274.274v1.361H25.917a.822.822,0,1,0,0,1.644h9.745a.274.274,0,0,1,.274.274Zm25.4,0H37.579V51.782a1.92,1.92,0,0,0-1.917-1.917h-.013V48.5a1.92,1.92,0,0,0-1.917-1.917h-6.74V43.733h2.771a3.507,3.507,0,0,0,1.009-6.865V34.776a1.916,1.916,0,0,0,.929-1.64V32.43h3.522A1.371,1.371,0,0,0,36.5,33.3h2.4a1.371,1.371,0,0,0,1.275-.874h5.813a1.448,1.448,0,0,0,1.328.874H61.336v21.15Z" transform="translate(-15.078 0)"/>
        <path id="Trazado_979683" data-name="Trazado 979683" d="M202.872,55.117a8.51,8.51,0,1,0,8.51-8.51A8.52,8.52,0,0,0,202.872,55.117Zm15.376,0a6.866,6.866,0,1,1-6.866-6.866A6.874,6.874,0,0,1,218.248,55.117Z" transform="translate(-182.296 -41.5)"/>
        <path id="Trazado_979684" data-name="Trazado 979684" d="M247.746,102.79a.822.822,0,0,0-1.162,1.162l2.528,2.528a.822.822,0,0,0,1.162,0l3.918-3.918a.822.822,0,0,0-1.162-1.162l-3.337,3.337Z" transform="translate(-221.004 -90.076)"/>
        <path id="Trazado_979685" data-name="Trazado 979685" d="M243.681,327.891a.822.822,0,0,0,.822.822h15.113a.822.822,0,1,0,0-1.643H244.5A.822.822,0,0,0,243.681,327.891Z" transform="translate(-218.634 -291.233)"/>
        <path id="Trazado_979686" data-name="Trazado 979686" d="M319.113,363.546h-7.791a.822.822,0,1,0,0,1.643h7.791a.822.822,0,1,0,0-1.643Z" transform="translate(-278.131 -323.713)"/>
        <path id="Trazado_979687" data-name="Trazado 979687" d="M244.5,365.189h4.472a.822.822,0,1,0,0-1.643H244.5a.822.822,0,1,0,0,1.643Z" transform="translate(-218.634 -323.713)"/>
        <path id="Trazado_979688" data-name="Trazado 979688" d="M259.614,400.023H244.5a.822.822,0,1,0,0,1.643h15.113a.822.822,0,1,0,0-1.643Z" transform="translate(-218.633 -356.194)"/>
        <path id="Trazado_979689" data-name="Trazado 979689" d="M350.278,436.5h-3.956a.822.822,0,0,0,0,1.643h3.956a.822.822,0,0,0,0-1.643Z" transform="translate(-309.297 -388.674)"/>
        <path id="Trazado_979690" data-name="Trazado 979690" d="M253.139,436.5H244.5a.822.822,0,1,0,0,1.643h8.636a.822.822,0,0,0,0-1.643Z" transform="translate(-218.634 -388.674)"/>
      </g>
    </g>
  </g>
</svg>
